JapaSansOriya-Thin.ufo
<glyph name="L" format="2">
  <advance width="506"/>
  <unicode hex="004C"/>
  <anchor x="283" y="0" name="bottom"/>
  <anchor x="253" y="357" name="center"/>
  <anchor x="116" y="714" name="top"/>
  <anchor x="446" y="714" name="topright"/>
  <outline>
    <contour>
      <point x="103" y="0" type="line"/>
      <point x="486" y="0" type="line"/>
      <point x="486" y="25" type="line"/>
      <point x="129" y="25" type="line"/>
      <point x="129" y="714" type="line"/>
      <point x="103" y="714" type="line"/>
    </contour>
  </outline>
</glyph>
<glyph name="brokenbar" format="2">
  <advance width="535"/>
  <unicode hex="00A6"/>
  <outline>
    <contour>
      <point x="253" y="763" type="line"/>
      <point x="253" y="395" type="line"/>
      <point x="278" y="395" type="line"/>
      <point x="278" y="763" type="line"/>
    </contour>
    <contour>
      <point x="253" y="118" type="line"/>
      <point x="253" y="-251" type="line"/>
      <point x="278" y="-251" type="line"/>
      <point x="278" y="118" type="line"/>
    </contour>
  </outline>
</glyph>
<glyph name="logicalnot" format="2">
  <advance width="570"/>
  <unicode hex="00AC"/>
  <outline>
    <contour>
      <point x="498" y="365" type="line"/>
      <point x="55" y="365" type="line"/>
      <point x="55" y="341" type="line"/>
      <point x="474" y="341" type="line"/>
      <point x="474" y="132" type="line"/>
      <point x="498" y="132" type="line"/>
    </contour>
  </outline>
</glyph>
<glyph name="plusminus" format="2">
  <advance width="570"/>
  <unicode hex="00B1"/>
  <outline>
    <component base="plus.latn"/>
    <contour>
      <point x="55" y="0" type="line"/>
      <point x="515" y="0" type="line"/>
      <point x="515" y="24" type="line"/>
      <point x="55" y="24" type="line"/>
    </contour>
  </outline>
</glyph>
<glyph name="macronmod" format="2">
  <advance width="335"/>
  <unicode hex="02C9"/>
  <outline>
    <contour>
      <point x="295" y="638" type="line"/>
      <point x="40" y="638" type="line"/>
      <point x="40" y="614" type="line"/>
      <point x="295" y="614" type="line"/>
    </contour>
  </outline>
</glyph>
<glyph name="colontriangularmod" format="2">
  <advance width="346"/>
  <unicode hex="02D0"/>
  <outline>
    <contour>
      <point x="174" y="397" type="line"/>
      <point x="263" y="536" type="line"/>
      <point x="85" y="536" type="line"/>
    </contour>
    <contour>
      <point x="85" y="0" type="line"/>
      <point x="263" y="0" type="line"/>
      <point x="174" y="139" type="line"/>
    </contour>
  </outline>
</glyph>
<glyph name="dotabovecomb" format="2">
  <unicode hex="0307"/>
  <anchor x="0" y="658" name="_top"/>
  <outline>
    <contour>
      <point x="-23" y="777" type="curve" smooth="yes"/>
      <point x="-23" y="760"/>
      <point x="-18" y="746"/>
      <point x="0" y="746" type="curve" smooth="yes"/>
      <point x="22" y="746"/>
      <point x="25" y="760"/>
      <point x="25" y="777" type="curve" smooth="yes"/>
      <point x="25" y="793"/>
      <point x="22" y="808"/>
      <point x="0" y="808" type="curve" smooth="yes"/>
      <point x="-18" y="808"/>
      <point x="-23" y="793"/>
    </contour>
  </outline>
</glyph>
<glyph name="dieresiscomb" format="2">
  <unicode hex="0308"/>
  <anchor x="0" y="658" name="_top"/>
  <outline>
    <contour>
      <point x="-49" y="746" type="curve"/>
      <point x="-49" y="746" type="line"/>
      <point x="-36" y="746"/>
      <point x="-26" y="756"/>
      <point x="-26" y="769" type="curve"/>
      <point x="-26" y="783"/>
      <point x="-37" y="793"/>
      <point x="-49" y="793" type="curve"/>
      <point x="-62" y="793"/>
      <point x="-73" y="783"/>
      <point x="-73" y="769" type="curve"/>
      <point x="-73" y="756"/>
      <point x="-63" y="746"/>
    </contour>
    <contour>
      <point x="50" y="746" type="curve"/>
      <point x="50" y="746" type="line"/>
      <point x="63" y="746"/>
      <point x="73" y="756"/>
      <point x="73" y="769" type="curve"/>
      <point x="73" y="783"/>
      <point x="62" y="793"/>
      <point x="50" y="793" type="curve"/>
      <point x="37" y="793"/>
      <point x="26" y="783"/>
      <point x="26" y="769" type="curve"/>
      <point x="26" y="756"/>
      <point x="36" y="746"/>
    </contour>
  </outline>
</glyph>
<glyph name="e-oriya" format="2">
  <advance width="654"/>
  <unicode hex="0B0F"/>
  <note>
eorya
</note>
  <anchor x="571" y="658" name="topright"/>
  <outline>
    <contour>
      <point x="313" y="417" type="curve"/>
      <point x="313" y="417" type="line"/>
      <point x="327" y="401" type="line"/>
      <point x="327" y="516"/>
      <point x="424" y="634"/>
      <point x="573" y="634" type="curve"/>
      <point x="558" y="643" type="line"/>
      <point x="558" y="12" type="line"/>
      <point x="577" y="15" type="line"/>
      <point x="377" y="157"/>
      <point x="190" y="321"/>
      <point x="21" y="492" type="curve"/>
      <point x="2" y="474" type="line"/>
      <point x="164" y="308"/>
      <point x="351" y="145"/>
      <point x="556" y="0" type="curve"/>
      <point x="584" y="0" type="line"/>
      <point x="584" y="658" type="line"/>
      <point x="567" y="658" type="line" smooth="yes"/>
      <point x="387" y="658"/>
      <point x="301" y="505"/>
      <point x="301" y="415" type="curve"/>
      <point x="301" y="377"/>
      <point x="318" y="351"/>
      <point x="344" y="351" type="curve"/>
      <point x="365" y="351"/>
      <point x="379" y="365"/>
      <point x="379" y="387" type="curve"/>
      <point x="379" y="406"/>
      <point x="366" y="426"/>
      <point x="339" y="426" type="curve"/>
      <point x="329" y="426"/>
      <point x="320" y="423"/>
    </contour>
  </outline>
</glyph>
<glyph name="ai-oriya" format="2">
  <advance width="820"/>
  <unicode hex="0B10"/>
  <note>
aiorya
</note>
  <guideline x="356" y="858" angle="32.7352"/>
  <guideline x="356" y="699" angle="32.7352"/>
  <outline>
    <contour>
      <point x="652" y="328" type="curve"/>
      <point x="652" y="328" type="line"/>
      <point x="678" y="328"/>
      <point x="708" y="334"/>
      <point x="733" y="348" type="curve"/>
      <point x="733" y="374" type="line"/>
      <point x="708" y="358"/>
      <point x="679" y="352"/>
      <point x="652" y="352" type="curve"/>
      <point x="625" y="352"/>
      <point x="596" y="358"/>
      <point x="571" y="374" type="curve"/>
      <point x="571" y="348" type="line"/>
      <point x="596" y="334"/>
      <point x="626" y="328"/>
    </contour>
    <contour>
      <point x="313" y="417" type="curve"/>
      <point x="313" y="417" type="line"/>
      <point x="327" y="401" type="line"/>
      <point x="327" y="516"/>
      <point x="424" y="634"/>
      <point x="573" y="634" type="curve"/>
      <point x="558" y="643" type="line"/>
      <point x="558" y="12" type="line"/>
      <point x="577" y="15" type="line"/>
      <point x="377" y="157"/>
      <point x="190" y="321"/>
      <point x="21" y="492" type="curve"/>
      <point x="2" y="474" type="line"/>
      <point x="164" y="308"/>
      <point x="351" y="145"/>
      <point x="556" y="0" type="curve"/>
      <point x="584" y="0" type="line"/>
      <point x="584" y="658" type="line"/>
      <point x="567" y="658" type="line" smooth="yes"/>
      <point x="387" y="658"/>
      <point x="301" y="505"/>
      <point x="301" y="415" type="curve"/>
      <point x="301" y="377"/>
      <point x="318" y="351"/>
      <point x="344" y="351" type="curve"/>
      <point x="365" y="351"/>
      <point x="379" y="365"/>
      <point x="379" y="387" type="curve"/>
      <point x="379" y="406"/>
      <point x="366" y="426"/>
      <point x="339" y="426" type="curve"/>
      <point x="329" y="426"/>
      <point x="320" y="423"/>
    </contour>
    <contour>
      <point x="750" y="693" type="line"/>
      <point x="741" y="677" type="line"/>
      <point x="793" y="699"/>
      <point x="821" y="734"/>
      <point x="821" y="781" type="curve"/>
      <point x="821" y="840"/>
      <point x="772" y="876"/>
      <point x="703" y="876" type="curve"/>
      <point x="612" y="876"/>
      <point x="505" y="816"/>
      <point x="430" y="816" type="curve"/>
      <point x="388" y="816"/>
      <point x="350" y="831"/>
      <point x="326" y="873" type="curve"/>
      <point x="303" y="858" type="line"/>
      <point x="330" y="809"/>
      <point x="380" y="792"/>
      <point x="429" y="792" type="curve"/>
      <point x="521" y="792"/>
      <point x="624" y="852"/>
      <point x="700" y="852" type="curve"/>
      <point x="758" y="852"/>
      <point x="795" y="826"/>
      <point x="795" y="778" type="curve"/>
      <point x="795" y="739"/>
      <point x="770" y="710"/>
      <point x="724" y="693" type="curve"/>
      <point x="724" y="0" type="line"/>
      <point x="750" y="0" type="line"/>
    </contour>
  </outline>
</glyph>
<glyph name="da-oriya" format="2">
  <advance width="717"/>
  <unicode hex="0B26"/>
  <note>
daorya
</note>
  <guideline x="276" y="46" angle="0"/>
  <guideline x="347" y="506" angle="90"/>
  <anchor x="459" y="0" name="bottom"/>
  <anchor x="565" y="0" name="bottom_ra"/>
  <anchor x="350" y="658" name="top"/>
  <anchor x="614" y="658" name="topright"/>
  <outline>
    <contour>
      <point x="318" y="76" type="curve"/>
      <point x="318" y="76" type="line"/>
      <point x="376" y="76"/>
      <point x="429" y="94"/>
      <point x="469" y="141" type="curve"/>
      <point x="464" y="168" type="line"/>
      <point x="428" y="120"/>
      <point x="375" y="100"/>
      <point x="318" y="100" type="curve"/>
      <point x="233" y="100"/>
      <point x="193" y="152"/>
      <point x="193" y="211" type="curve"/>
      <point x="193" y="265"/>
      <point x="227" y="327"/>
      <point x="289" y="360" type="curve"/>
      <point x="277" y="380" type="line"/>
      <point x="202" y="339"/>
      <point x="167" y="273"/>
      <point x="167" y="213" type="curve"/>
      <point x="167" y="140"/>
      <point x="218" y="76"/>
    </contour>
    <contour>
      <point x="459" y="141" type="line"/>
      <point x="459" y="0" type="line"/>
      <point x="485" y="0" type="line"/>
      <point x="485" y="320" type="line"/>
      <point x="459" y="320" type="line"/>
      <point x="459" y="150" type="line"/>
    </contour>
    <contour>
      <point x="175" y="198" type="curve"/>
      <point x="175" y="198" type="line"/>
      <point x="181" y="223" type="line"/>
      <point x="104" y="267"/>
      <point x="64" y="338"/>
      <point x="64" y="417" type="curve"/>
      <point x="64" y="551"/>
      <point x="184" y="642"/>
      <point x="349" y="642" type="curve"/>
      <point x="503" y="642"/>
      <point x="653" y="562"/>
      <point x="653" y="403" type="curve"/>
      <point x="653" y="342"/>
      <point x="631" y="291"/>
      <point x="595" y="250" type="curve"/>
      <point x="615" y="234" type="line"/>
      <point x="655" y="279"/>
      <point x="679" y="336"/>
      <point x="679" y="403" type="curve"/>
      <point x="679" y="578"/>
      <point x="517" y="666"/>
      <point x="350" y="666" type="curve"/>
      <point x="168" y="666"/>
      <point x="38" y="562"/>
      <point x="38" y="417" type="curve"/>
      <point x="38" y="326"/>
      <point x="84" y="245"/>
    </contour>
  </outline>
</glyph>
<glyph name="overline-oriya" format="2">
  <unicode hex="0B55"/>
  <anchor x="-2" y="658" name="_top"/>
  <outline>
    <contour>
      <point x="126" y="768" type="line"/>
      <point x="-129" y="768" type="line"/>
      <point x="-129" y="744" type="line"/>
      <point x="126" y="744" type="line"/>
    </contour>
  </outline>
</glyph>
<glyph name="aiLength-oriya" format="2">
  <unicode hex="0B56"/>
  <note>
ailengthmarkorya
</note>
  <guideline x="1243" y="527" angle="90"/>
  <anchor x="519" y="658" name="_topright"/>
  <outline>
    <contour>
      <point x="510" y="703" type="curve"/>
      <point x="510" y="703" type="line"/>
      <point x="534" y="695" type="line"/>
      <point x="543" y="719"/>
      <point x="548" y="743"/>
      <point x="548" y="765" type="curve"/>
      <point x="548" y="828"/>
      <point x="509" y="876"/>
      <point x="428" y="876" type="curve"/>
      <point x="336" y="876"/>
      <point x="232" y="816"/>
      <point x="153" y="816" type="curve"/>
      <point x="113" y="816"/>
      <point x="75" y="831"/>
      <point x="51" y="873" type="curve"/>
      <point x="28" y="858" type="line"/>
      <point x="55" y="809"/>
      <point x="105" y="792"/>
      <point x="154" y="792" type="curve"/>
      <point x="247" y="792"/>
      <point x="347" y="852"/>
      <point x="428" y="852" type="curve"/>
      <point x="492" y="852"/>
      <point x="523" y="814"/>
      <point x="523" y="764" type="curve"/>
      <point x="523" y="744"/>
      <point x="518" y="724"/>
    </contour>
  </outline>
</glyph>
<glyph name="fraction" format="2">
  <advance width="114"/>
  <unicode hex="2044"/>
  <outline>
    <contour>
      <point x="256" y="714" type="line"/>
      <point x="228" y="714" type="line"/>
      <point x="-144" y="0" type="line"/>
      <point x="-116" y="0" type="line"/>
    </contour>
  </outline>
</glyph>
<glyph name="hyphensuperior" format="2">
  <advance width="308"/>
  <unicode hex="207B"/>
  <outline>
    <contour>
      <point x="35" y="587" type="line"/>
      <point x="273" y="587" type="line"/>
      <point x="273" y="612" type="line"/>
      <point x="35" y="612" type="line"/>
    </contour>
  </outline>
</glyph>
<glyph name="dottedCircle" format="2">
  <advance width="800"/>
  <unicode hex="25CC"/>
  <note>
uni25CC
</note>
  <anchor x="640" y="51" name="bottom"/>
  <anchor x="742" y="-4" name="bottom_ra"/>
  <anchor x="718" y="58" name="bottom_ta"/>
  <anchor x="436" y="-191" name="nukta"/>
  <anchor x="431" y="659" name="top"/>
  <anchor x="769" y="658" name="topright"/>
  <outline>
    <contour>
      <point x="429" y="509" type="curve"/>
      <point x="429" y="509" type="line"/>
      <point x="429" y="528"/>
      <point x="419" y="537"/>
      <point x="399" y="537" type="curve"/>
      <point x="380" y="537"/>
      <point x="371" y="528"/>
      <point x="371" y="509" type="curve"/>
      <point x="371" y="489"/>
      <point x="379" y="480"/>
      <point x="399" y="480" type="curve"/>
      <point x="419" y="480"/>
      <point x="429" y="490"/>
    </contour>
    <contour>
      <point x="299" y="460" type="curve"/>
      <point x="299" y="460" type="line"/>
      <point x="299" y="479"/>
      <point x="290" y="488"/>
      <point x="270" y="488" type="curve"/>
      <point x="250" y="488"/>
      <point x="242" y="479"/>
      <point x="242" y="460" type="curve"/>
      <point x="242" y="441"/>
      <point x="251" y="431"/>
      <point x="270" y="431" type="curve"/>
      <point x="289" y="431"/>
      <point x="299" y="441"/>
    </contour>
    <contour>
      <point x="559" y="460" type="curve"/>
      <point x="559" y="460" type="line"/>
      <point x="559" y="479"/>
      <point x="549" y="488"/>
      <point x="529" y="488" type="curve"/>
      <point x="510" y="488"/>
      <point x="500" y="479"/>
      <point x="500" y="460" type="curve"/>
      <point x="500" y="441"/>
      <point x="510" y="431"/>
      <point x="529" y="431" type="curve"/>
      <point x="549" y="431"/>
      <point x="559" y="441"/>
    </contour>
    <contour>
      <point x="604" y="335" type="curve"/>
      <point x="604" y="335" type="line"/>
      <point x="604" y="354"/>
      <point x="594" y="363"/>
      <point x="575" y="363" type="curve"/>
      <point x="555" y="363"/>
      <point x="545" y="354"/>
      <point x="545" y="335" type="curve"/>
      <point x="545" y="316"/>
      <point x="555" y="306"/>
      <point x="575" y="306" type="curve"/>
      <point x="594" y="306"/>
      <point x="604" y="316"/>
    </contour>
    <contour>
      <point x="254" y="335" type="curve"/>
      <point x="254" y="335" type="line"/>
      <point x="254" y="354"/>
      <point x="245" y="363"/>
      <point x="226" y="363" type="curve"/>
      <point x="206" y="363"/>
      <point x="196" y="354"/>
      <point x="196" y="335" type="curve"/>
      <point x="196" y="315"/>
      <point x="206" y="306"/>
      <point x="226" y="306" type="curve"/>
      <point x="246" y="306"/>
      <point x="254" y="315"/>
    </contour>
    <contour>
      <point x="299" y="210" type="curve"/>
      <point x="299" y="210" type="line"/>
      <point x="299" y="231"/>
      <point x="290" y="239"/>
      <point x="270" y="239" type="curve"/>
      <point x="250" y="239"/>
      <point x="242" y="231"/>
      <point x="242" y="210" type="curve"/>
      <point x="242" y="190"/>
      <point x="250" y="181"/>
      <point x="270" y="181" type="curve"/>
      <point x="290" y="181"/>
      <point x="299" y="190"/>
    </contour>
    <contour>
      <point x="559" y="210" type="curve"/>
      <point x="559" y="210" type="line"/>
      <point x="559" y="229"/>
      <point x="549" y="239"/>
      <point x="529" y="239" type="curve"/>
      <point x="510" y="239"/>
      <point x="500" y="229"/>
      <point x="500" y="210" type="curve"/>
      <point x="500" y="191"/>
      <point x="510" y="181"/>
      <point x="529" y="181" type="curve"/>
      <point x="549" y="181"/>
      <point x="559" y="191"/>
    </contour>
    <contour>
      <point x="429" y="160" type="curve"/>
      <point x="429" y="160" type="line"/>
      <point x="429" y="179"/>
      <point x="419" y="189"/>
      <point x="399" y="189" type="curve"/>
      <point x="379" y="189"/>
      <point x="371" y="180"/>
      <point x="371" y="160" type="curve"/>
      <point x="371" y="141"/>
      <point x="380" y="131"/>
      <point x="399" y="131" type="curve"/>
      <point x="419" y="131"/>
      <point x="429" y="141"/>
    </contour>
  </outline>
</glyph>
<glyph name="halfbracketrighttop" format="2">
  <advance width="327"/>
  <unicode hex="2E23"/>
  <outline>
    <contour>
      <point x="222" y="280" type="line"/>
      <point x="247" y="280" type="line"/>
      <point x="247" y="714" type="line"/>
      <point x="47" y="714" type="line"/>
      <point x="47" y="689" type="line"/>
      <point x="222" y="689" type="line"/>
    </contour>
  </outline>
</glyph>
<glyph name="halfbracketleftbottom" format="2">
  <advance width="327"/>
  <unicode hex="2E24"/>
  <outline>
    <contour>
      <point x="88" y="-158" type="line"/>
      <point x="288" y="-158" type="line"/>
      <point x="288" y="-133" type="line"/>
      <point x="113" y="-133" type="line"/>
      <point x="113" y="276" type="line"/>
      <point x="88" y="276" type="line"/>
    </contour>
  </outline>
</glyph>
<glyph name="halfbracketrightbottom" format="2">
  <advance width="327"/>
  <unicode hex="2E25"/>
  <outline>
    <contour>
      <point x="222" y="276" type="line"/>
      <point x="222" y="-133" type="line"/>
      <point x="47" y="-133" type="line"/>
      <point x="47" y="-158" type="line"/>
      <point x="247" y="-158" type="line"/>
      <point x="247" y="276" type="line"/>
    </contour>
  </outline>
</glyph>
<glyph name="saltillo" format="2">
  <advance width="146"/>
  <unicode hex="A78C"/>
  <outline>
    <contour>
      <point x="65" y="406" type="line"/>
      <point x="78" y="406" type="line"/>
      <point x="89" y="714" type="line"/>
      <point x="54" y="714" type="line"/>
    </contour>
  </outline>
</glyph>
<glyph name="_part.ra.below" format="2">
  <advance width="447"/>
  <guideline x="491" y="-140" angle="0"/>
  <anchor x="411" y="0" name="_bottom_ra"/>
  <anchor x="51" y="-116" name="horizontal"/>
  <anchor x="385" y="-116" name="stem"/>
  <anchor x="385" y="10" name="vertical"/>
  <outline>
    <contour>
      <point x="51" y="-140" type="line"/>
      <point x="411" y="-140" type="line"/>
      <point x="411" y="10" type="line"/>
      <point x="385" y="10" type="line"/>
      <point x="385" y="-116" type="line"/>
      <point x="51" y="-116" type="line"/>
    </contour>
  </outline>
</glyph>
<glyph name="aiLength-oriya.stem" format="2">
  <note>
ailengthmarkorya
</note>
  <anchor x="466" y="658" name="_topright"/>
  <outline>
    <contour>
      <point x="453" y="658" type="curve"/>
      <point x="453" y="658" type="line"/>
      <point x="478" y="646" type="line"/>
      <point x="529" y="680"/>
      <point x="556" y="731"/>
      <point x="556" y="776" type="curve"/>
      <point x="556" y="830"/>
      <point x="519" y="876"/>
      <point x="437" y="876" type="curve"/>
      <point x="345" y="876"/>
      <point x="241" y="816"/>
      <point x="162" y="816" type="curve"/>
      <point x="122" y="816"/>
      <point x="84" y="831"/>
      <point x="60" y="873" type="curve"/>
      <point x="37" y="858" type="line"/>
      <point x="64" y="809"/>
      <point x="114" y="792"/>
      <point x="163" y="792" type="curve"/>
      <point x="256" y="792"/>
      <point x="355" y="852"/>
      <point x="437" y="852" type="curve"/>
      <point x="500" y="852"/>
      <point x="531" y="816"/>
      <point x="531" y="773" type="curve"/>
      <point x="531" y="732"/>
      <point x="503" y="685"/>
    </contour>
  </outline>
</glyph>
<glyph name="aiLength-oriya.umbrella" format="2">
  <note>
ailengthmarkorya
</note>
  <guideline x="1243" y="527" angle="90"/>
  <anchor x="511" y="658" name="_topright"/>
  <outline>
    <contour>
      <point x="443" y="610" type="curve"/>
      <point x="443" y="610" type="line"/>
      <point x="466" y="597" type="line"/>
      <point x="520" y="648"/>
      <point x="548" y="712"/>
      <point x="548" y="765" type="curve"/>
      <point x="548" y="828"/>
      <point x="509" y="876"/>
      <point x="428" y="876" type="curve"/>
      <point x="336" y="876"/>
      <point x="232" y="816"/>
      <point x="153" y="816" type="curve"/>
      <point x="113" y="816"/>
      <point x="75" y="831"/>
      <point x="51" y="873" type="curve"/>
      <point x="28" y="858" type="line"/>
      <point x="55" y="809"/>
      <point x="105" y="792"/>
      <point x="154" y="792" type="curve"/>
      <point x="247" y="792"/>
      <point x="347" y="852"/>
      <point x="428" y="852" type="curve"/>
      <point x="492" y="852"/>
      <point x="523" y="814"/>
      <point x="523" y="764" type="curve"/>
      <point x="523" y="716"/>
      <point x="495" y="657"/>
    </contour>
  </outline>
</glyph>
<glyph name="ba-oriya.below" format="2">
  <note>
basubscriptorya
</note>
  <guideline x="196" y="155" angle="90"/>
  <anchor x="241" y="110" name="_bottom"/>
  <anchor x="196" y="-294" name="nukta"/>
  <outline>
    <contour>
      <point x="99" y="-142" type="curve"/>
      <point x="99" y="-142" type="line"/>
      <point x="102" y="-111" type="line"/>
      <point x="69" y="-90"/>
      <point x="53" y="-64"/>
      <point x="53" y="-21" type="curve"/>
      <point x="53" y="56"/>
      <point x="119" y="93"/>
      <point x="195" y="93" type="curve"/>
      <point x="274" y="93"/>
      <point x="339" y="53"/>
      <point x="339" y="-24" type="curve"/>
      <point x="339" y="-57"/>
      <point x="327" y="-85"/>
      <point x="309" y="-106" type="curve"/>
      <point x="329" y="-122" type="line"/>
      <point x="350" y="-97"/>
      <point x="364" y="-64"/>
      <point x="364" y="-25" type="curve"/>
      <point x="364" y="67"/>
      <point x="286" y="116"/>
      <point x="194" y="116" type="curve"/>
      <point x="107" y="116"/>
      <point x="28" y="72"/>
      <point x="28" y="-19" type="curve"/>
      <point x="28" y="-78"/>
      <point x="56" y="-112"/>
    </contour>
    <contour>
      <point x="182" y="-216" type="curve"/>
      <point x="182" y="-216" type="line"/>
      <point x="240" y="-216"/>
      <point x="279" y="-180"/>
      <point x="279" y="-127" type="curve"/>
      <point x="279" y="-74"/>
      <point x="241" y="-38"/>
      <point x="183" y="-38" type="curve"/>
      <point x="125" y="-38"/>
      <point x="86" y="-74"/>
      <point x="86" y="-127" type="curve"/>
      <point x="86" y="-180"/>
      <point x="124" y="-216"/>
    </contour>
    <contour>
      <point x="183" y="-193" type="curve"/>
      <point x="183" y="-193" type="line"/>
      <point x="140" y="-193"/>
      <point x="111" y="-167"/>
      <point x="111" y="-127" type="curve"/>
      <point x="111" y="-87"/>
      <point x="140" y="-61"/>
      <point x="183" y="-61" type="curve"/>
      <point x="226" y="-61"/>
      <point x="253" y="-87"/>
      <point x="253" y="-127" type="curve"/>
      <point x="253" y="-167"/>
      <point x="226" y="-193"/>
    </contour>
    <contour>
      <point x="253" y="-128" type="line"/>
      <point x="253" y="-244" type="line"/>
      <point x="279" y="-244" type="line"/>
      <point x="279" y="-127" type="line"/>
    </contour>
  </outline>
</glyph>
<glyph name="baja-oriya" format="2">
  <advance width="633"/>
  <guideline x="113" y="142" angle="90"/>
  <guideline x="434" y="177" angle="90"/>
  <guideline x="510" y="177" angle="90"/>
  <anchor x="315" y="658" name="top"/>
  <anchor x="530" y="658" name="topright"/>
  <outline>
    <contour>
      <point x="276" y="-248" type="curve"/>
      <point x="276" y="-248" type="line"/>
      <point x="310" y="-248"/>
      <point x="346" y="-240"/>
      <point x="374" y="-229" type="curve"/>
      <point x="356" y="-187"/>
      <point x="343" y="-137"/>
      <point x="343" y="-92" type="curve"/>
      <point x="343" y="-25"/>
      <point x="372" y="13"/>
      <point x="421" y="13" type="curve"/>
      <point x="463" y="13"/>
      <point x="484" y="-16"/>
      <point x="484" y="-63" type="curve"/>
      <point x="484" y="-244" type="line"/>
      <point x="510" y="-244" type="line"/>
      <point x="510" y="-60" type="line" smooth="yes"/>
      <point x="510" y="-2"/>
      <point x="479" y="36"/>
      <point x="420" y="36" type="curve"/>
      <point x="354" y="36"/>
      <point x="318" y="-11"/>
      <point x="318" y="-93" type="curve"/>
      <point x="318" y="-136"/>
      <point x="328" y="-179"/>
      <point x="348" y="-231" type="curve"/>
      <point x="359" y="-208" type="line"/>
      <point x="339" y="-218"/>
      <point x="304" y="-225"/>
      <point x="279" y="-225" type="curve"/>
      <point x="213" y="-225"/>
      <point x="171" y="-188"/>
      <point x="171" y="-126" type="curve"/>
      <point x="171" y="-73"/>
      <point x="201" y="-22"/>
      <point x="240" y="17" type="curve"/>
      <point x="223" y="33" type="line"/>
      <point x="178" y="-10"/>
      <point x="146" y="-63"/>
      <point x="146" y="-125" type="curve"/>
      <point x="146" y="-206"/>
      <point x="200" y="-248"/>
    </contour>
    <contour>
      <point x="408" y="282" type="line"/>
      <point x="408" y="21" type="line"/>
      <point x="434" y="21" type="line"/>
      <point x="434" y="284" type="line"/>
    </contour>
    <contour>
      <point x="286" y="140" type="curve"/>
      <point x="286" y="140" type="line"/>
      <point x="375" y="140"/>
      <point x="434" y="198"/>
      <point x="434" y="284" type="curve"/>
      <point x="434" y="370"/>
      <point x="375" y="428"/>
      <point x="287" y="428" type="curve"/>
      <point x="195" y="428"/>
      <point x="134" y="370"/>
      <point x="134" y="282" type="curve"/>
      <point x="134" y="197"/>
      <point x="195" y="140"/>
    </contour>
    <contour>
      <point x="287" y="164" type="curve"/>
      <point x="287" y="164" type="line"/>
      <point x="211" y="164"/>
      <point x="160" y="211"/>
      <point x="160" y="282" type="curve"/>
      <point x="160" y="355"/>
      <point x="211" y="404"/>
      <point x="287" y="404" type="curve"/>
      <point x="360" y="404"/>
      <point x="408" y="355"/>
      <point x="408" y="282" type="curve"/>
      <point x="408" y="211"/>
      <point x="360" y="164"/>
    </contour>
    <contour>
      <point x="153" y="270" type="curve"/>
      <point x="153" y="270" type="line"/>
      <point x="150" y="302" type="line"/>
      <point x="99" y="323"/>
      <point x="64" y="385"/>
      <point x="64" y="449" type="curve"/>
      <point x="64" y="541"/>
      <point x="136" y="642"/>
      <point x="315" y="642" type="curve"/>
      <point x="467" y="642"/>
      <point x="569" y="560"/>
      <point x="569" y="437" type="curve"/>
      <point x="569" y="384"/>
      <point x="550" y="348"/>
      <point x="519" y="314" type="curve"/>
      <point x="538" y="297" type="line"/>
      <point x="574" y="334"/>
      <point x="595" y="378"/>
      <point x="595" y="437" type="curve"/>
      <point x="595" y="574"/>
      <point x="483" y="665"/>
      <point x="315" y="665" type="curve"/>
      <point x="120" y="665"/>
      <point x="38" y="556"/>
      <point x="38" y="448" type="curve"/>
      <point x="38" y="374"/>
      <point x="81" y="299"/>
    </contour>
  </outline>
</glyph>
<glyph name="ca-oriya.below" format="2">
  <note>
casubscriptorya
</note>
  <guideline x="195" y="155" angle="90"/>
  <anchor x="240" y="110" name="_bottom"/>
  <anchor x="196" y="-328" name="nukta"/>
  <outline>
    <contour>
      <point x="89" y="-135" type="curve"/>
      <point x="89" y="-135" type="line"/>
      <point x="102" y="-111" type="line"/>
      <point x="66" y="-89"/>
      <point x="53" y="-58"/>
      <point x="53" y="-21" type="curve"/>
      <point x="53" y="54"/>
      <point x="118" y="93"/>
      <point x="197" y="93" type="curve"/>
      <point x="274" y="93"/>
      <point x="339" y="53"/>
      <point x="339" y="-24" type="curve"/>
      <point x="339" y="-57"/>
      <point x="327" y="-85"/>
      <point x="309" y="-106" type="curve"/>
      <point x="329" y="-122" type="line"/>
      <point x="350" y="-97"/>
      <point x="364" y="-64"/>
      <point x="364" y="-25" type="curve"/>
      <point x="364" y="67"/>
      <point x="286" y="116"/>
      <point x="196" y="116" type="curve"/>
      <point x="107" y="116"/>
      <point x="28" y="71"/>
      <point x="28" y="-21" type="curve"/>
      <point x="28" y="-75"/>
      <point x="51" y="-105"/>
    </contour>
    <contour>
      <point x="182" y="-248" type="curve"/>
      <point x="182" y="-248" type="line"/>
      <point x="244" y="-248"/>
      <point x="283" y="-207"/>
      <point x="283" y="-152" type="curve"/>
      <point x="283" y="-98"/>
      <point x="244" y="-57"/>
      <point x="182" y="-57" type="curve"/>
      <point x="121" y="-57"/>
      <point x="82" y="-98"/>
      <point x="82" y="-152" type="curve"/>
      <point x="82" y="-207"/>
      <point x="121" y="-248"/>
    </contour>
    <contour>
      <point x="182" y="-225" type="curve"/>
      <point x="182" y="-225" type="line"/>
      <point x="137" y="-225"/>
      <point x="107" y="-195"/>
      <point x="107" y="-152" type="curve"/>
      <point x="107" y="-109"/>
      <point x="137" y="-80"/>
      <point x="182" y="-80" type="curve"/>
      <point x="227" y="-80"/>
      <point x="258" y="-109"/>
      <point x="258" y="-152" type="curve"/>
      <point x="258" y="-195"/>
      <point x="227" y="-225"/>
    </contour>
  </outline>
</glyph>
<glyph name="darauMatra-oriya" format="2">
  <advance width="667"/>
  <guideline x="104" y="-61" angle="90"/>
  <anchor x="83" y="-233" name="nukta"/>
  <anchor x="333" y="658" name="top"/>
  <anchor x="564" y="658" name="topright"/>
  <outline>
    <contour>
      <point x="300" y="158" type="curve"/>
      <point x="300" y="158" type="line"/>
      <point x="340" y="158"/>
      <point x="396" y="168"/>
      <point x="436" y="214" type="curve"/>
      <point x="430" y="244" type="line"/>
      <point x="399" y="194"/>
      <point x="338" y="182"/>
      <point x="300" y="182" type="curve"/>
      <point x="223" y="182"/>
      <point x="182" y="228"/>
      <point x="182" y="277" type="curve"/>
      <point x="182" y="317"/>
      <point x="208" y="370"/>
      <point x="268" y="400" type="curve"/>
      <point x="257" y="420" type="line"/>
      <point x="191" y="386"/>
      <point x="156" y="332"/>
      <point x="156" y="280" type="curve"/>
      <point x="156" y="216"/>
      <point x="206" y="158"/>
    </contour>
    <contour>
      <point x="171" y="264" type="curve"/>
      <point x="171" y="264" type="line"/>
      <point x="178" y="288" type="line"/>
      <point x="91" y="331"/>
      <point x="64" y="389"/>
      <point x="64" y="448" type="curve"/>
      <point x="64" y="581"/>
      <point x="200" y="642"/>
      <point x="333" y="642" type="curve"/>
      <point x="468" y="642"/>
      <point x="603" y="580"/>
      <point x="603" y="451" type="curve"/>
      <point x="603" y="402"/>
      <point x="583" y="359"/>
      <point x="550" y="325" type="curve"/>
      <point x="567" y="309" type="line"/>
      <point x="605" y="347"/>
      <point x="629" y="395"/>
      <point x="629" y="453" type="curve"/>
      <point x="629" y="597"/>
      <point x="481" y="666"/>
      <point x="333" y="666" type="curve"/>
      <point x="187" y="666"/>
      <point x="38" y="599"/>
      <point x="38" y="449" type="curve"/>
      <point x="38" y="379"/>
      <point x="71" y="307"/>
    </contour>
    <contour>
      <point x="449" y="370" type="line"/>
      <point x="423" y="370" type="line"/>
      <point x="423" y="24" type="line"/>
      <point x="59" y="24" type="line"/>
      <point x="59" y="0" type="line"/>
      <point x="449" y="0" type="line"/>
    </contour>
    <contour>
      <point x="196" y="-203" type="curve"/>
      <point x="196" y="-203" type="line"/>
      <point x="275" y="-203"/>
      <point x="362" y="-143"/>
      <point x="362" y="2" type="curve"/>
      <point x="362" y="8" type="line"/>
      <point x="336" y="8" type="line"/>
      <point x="336" y="2" type="line" smooth="yes"/>
      <point x="336" y="-127"/>
      <point x="260" y="-178"/>
      <point x="196" y="-178" type="curve"/>
      <point x="153" y="-178"/>
      <point x="125" y="-158"/>
      <point x="125" y="-127" type="curve"/>
      <point x="125" y="-98"/>
      <point x="151" y="-79"/>
      <point x="190" y="-79" type="curve"/>
      <point x="290" y="-79"/>
      <point x="332" y="-203"/>
      <point x="456" y="-203" type="curve"/>
      <point x="475" y="-203"/>
      <point x="495" y="-200"/>
      <point x="515" y="-194" type="curve"/>
      <point x="508" y="-171" type="line"/>
      <point x="492" y="-176"/>
      <point x="476" y="-179"/>
      <point x="458" y="-179" type="curve"/>
      <point x="347" y="-179"/>
      <point x="300" y="-54"/>
      <point x="189" y="-54" type="curve"/>
      <point x="135" y="-54"/>
      <point x="99" y="-83"/>
      <point x="99" y="-127" type="curve"/>
      <point x="99" y="-173"/>
      <point x="138" y="-203"/>
    </contour>
  </outline>
</glyph>
<glyph name="dhava-oriya" format="2">
  <advance width="599"/>
  <anchor x="503" y="-244" name="bottom"/>
  <anchor x="529" y="-244" name="bottom_ra"/>
  <anchor x="423" y="-294" name="nukta"/>
  <anchor x="284" y="658" name="top"/>
  <anchor x="516" y="658" name="topright"/>
  <outline>
    <contour>
      <point x="266" y="90" type="curve"/>
      <point x="266" y="90" type="line"/>
      <point x="371" y="90"/>
      <point x="460" y="128"/>
      <point x="525" y="215" type="curve"/>
      <point x="514" y="242" type="line"/>
      <point x="450" y="151"/>
      <point x="367" y="114"/>
      <point x="268" y="114" type="curve"/>
      <point x="132" y="114"/>
      <point x="64" y="195"/>
      <point x="64" y="283" type="curve"/>
      <point x="64" y="367"/>
      <point x="131" y="440"/>
      <point x="263" y="467" type="curve"/>
      <point x="248" y="488" type="line"/>
      <point x="108" y="457"/>
      <point x="38" y="376"/>
      <point x="38" y="283" type="curve"/>
      <point x="38" y="184"/>
      <point x="114" y="90"/>
    </contour>
    <contour>
      <point x="85" y="651" type="line"/>
      <point x="365" y="316" type="line"/>
      <point x="383" y="332" type="line"/>
      <point x="104" y="665" type="line"/>
    </contour>
    <contour>
      <point x="410" y="-168" type="curve"/>
      <point x="410" y="-168" type="line"/>
      <point x="449" y="-168"/>
      <point x="490" y="-155"/>
      <point x="520" y="-125" type="curve"/>
      <point x="515" y="-98" type="line"/>
      <point x="489" y="-131"/>
      <point x="446" y="-144"/>
      <point x="411" y="-144" type="curve"/>
      <point x="353" y="-144"/>
      <point x="325" y="-109"/>
      <point x="325" y="-62" type="curve"/>
      <point x="325" y="-41"/>
      <point x="332" y="-15"/>
      <point x="343" y="8" type="curve"/>
      <point x="322" y="19" type="line"/>
      <point x="306" y="-9"/>
      <point x="299" y="-39"/>
      <point x="299" y="-65" type="curve"/>
      <point x="299" y="-121"/>
      <point x="337" y="-168"/>
    </contour>
    <contour>
      <point x="503" y="-127" type="line"/>
      <point x="503" y="-244" type="line"/>
      <point x="529" y="-244" type="line"/>
      <point x="529" y="658" type="line"/>
      <point x="503" y="658" type="line"/>
      <point x="503" y="212" type="line"/>
      <point x="503" y="196" type="line"/>
      <point x="503" y="76" type="line"/>
      <point x="503" y="-118" type="line"/>
    </contour>
  </outline>
</glyph>
<glyph name="emdash.latn" format="2">
  <advance width="1000"/>
  <outline>
    <contour>
      <point x="40" y="259" type="line"/>
      <point x="960" y="259" type="line"/>
      <point x="960" y="284" type="line"/>
      <point x="40" y="284" type="line"/>
    </contour>
  </outline>
</glyph>
<glyph name="haja-oriya" format="2">
  <advance width="621"/>
  <note>
hajaorya
</note>
  <guideline x="488" y="380" angle="90"/>
  <guideline x="412" y="372" angle="90"/>
  <anchor x="462" y="-164" name="bottom"/>
  <anchor x="488" y="-164" name="bottom_ra"/>
  <anchor x="331" y="-238" name="nukta"/>
  <anchor x="299" y="658" name="top"/>
  <anchor x="518" y="658" name="topright"/>
  <outline>
    <contour>
      <point x="121" y="184" type="line"/>
      <point x="399" y="97" type="line"/>
      <point x="434" y="110" type="line"/>
      <point x="138" y="203" type="line"/>
      <point x="138" y="188" type="line"/>
      <point x="244" y="264" type="line"/>
      <point x="222" y="273" type="line"/>
      <point x="119" y="200" type="line"/>
    </contour>
    <contour>
      <point x="279" y="245" type="curve"/>
      <point x="279" y="245" type="line"/>
      <point x="323" y="245"/>
      <point x="374" y="263"/>
      <point x="399" y="293" type="curve"/>
      <point x="397" y="332" type="line"/>
      <point x="381" y="294"/>
      <point x="327" y="269"/>
      <point x="279" y="269" type="curve"/>
      <point x="214" y="269"/>
      <point x="180" y="308"/>
      <point x="180" y="354" type="curve"/>
      <point x="180" y="395"/>
      <point x="207" y="442"/>
      <point x="262" y="472" type="curve"/>
      <point x="249" y="491" type="line"/>
      <point x="185" y="458"/>
      <point x="154" y="403"/>
      <point x="154" y="354" type="curve"/>
      <point x="154" y="296"/>
      <point x="197" y="245"/>
    </contour>
    <contour>
      <point x="386" y="294" type="line"/>
      <point x="386" y="195" type="line"/>
      <point x="412" y="195" type="line"/>
      <point x="412" y="443" type="line"/>
      <point x="386" y="443" type="line"/>
      <point x="386" y="305" type="line"/>
    </contour>
    <contour>
      <point x="503" y="322" type="curve"/>
      <point x="524" y="306" type="line"/>
      <point x="562" y="346"/>
      <point x="583" y="399"/>
      <point x="583" y="454" type="curve"/>
      <point x="583" y="597"/>
      <point x="439" y="666"/>
      <point x="299" y="666" type="curve"/>
      <point x="163" y="666"/>
      <point x="38" y="600"/>
      <point x="38" y="480" type="curve"/>
      <point x="38" y="405"/>
      <point x="87" y="351"/>
      <point x="171" y="327" type="curve"/>
      <point x="178" y="349" type="line"/>
      <point x="99" y="372"/>
      <point x="64" y="424"/>
      <point x="64" y="481" type="curve"/>
      <point x="64" y="586"/>
      <point x="182" y="642"/>
      <point x="297" y="642" type="curve"/>
      <point x="417" y="642"/>
      <point x="557" y="582"/>
      <point x="557" y="451" type="curve"/>
      <point x="557" y="401"/>
      <point x="537" y="357"/>
    </contour>
    <contour>
      <point x="254" y="-168" type="curve"/>
      <point x="254" y="-168" type="line"/>
      <point x="288" y="-168"/>
      <point x="324" y="-160"/>
      <point x="352" y="-149" type="curve"/>
      <point x="334" y="-107"/>
      <point x="321" y="-57"/>
      <point x="321" y="-12" type="curve"/>
      <point x="321" y="55"/>
      <point x="350" y="93"/>
      <point x="399" y="93" type="curve"/>
      <point x="441" y="93"/>
      <point x="463" y="64"/>
      <point x="463" y="17" type="curve"/>
      <point x="463" y="-164" type="line"/>
      <point x="488" y="-164" type="line"/>
      <point x="488" y="20" type="line" smooth="yes"/>
      <point x="488" y="78"/>
      <point x="457" y="116"/>
      <point x="398" y="116" type="curve"/>
      <point x="332" y="116"/>
      <point x="296" y="69"/>
      <point x="296" y="-13" type="curve"/>
      <point x="296" y="-56"/>
      <point x="306" y="-99"/>
      <point x="326" y="-151" type="curve"/>
      <point x="337" y="-128" type="line"/>
      <point x="317" y="-138"/>
      <point x="282" y="-145"/>
      <point x="257" y="-145" type="curve"/>
      <point x="191" y="-145"/>
      <point x="149" y="-108"/>
      <point x="149" y="-46" type="curve"/>
      <point x="149" y="4"/>
      <point x="176" y="52"/>
      <point x="212" y="90" type="curve"/>
      <point x="194" y="106" type="line"/>
      <point x="153" y="64"/>
      <point x="124" y="14"/>
      <point x="124" y="-45" type="curve"/>
      <point x="124" y="-126"/>
      <point x="178" y="-168"/>
    </contour>
  </outline>
</glyph>
<glyph name="hau-oriya" format="2">
  <advance width="621"/>
  <note>
huorya
</note>
  <guideline x="386" y="191" angle="90"/>
  <guideline x="412" y="191" angle="90"/>
  <anchor x="299" y="658" name="top"/>
  <anchor x="518" y="658" name="topright"/>
  <outline>
    <contour>
      <point x="254" y="-113" type="curve"/>
      <point x="254" y="-113" type="line"/>
      <point x="354" y="-113"/>
      <point x="412" y="-15"/>
      <point x="412" y="110" type="curve"/>
      <point x="386" y="126" type="line"/>
      <point x="386" y="110" type="line"/>
      <point x="386" y="-1"/>
      <point x="340" y="-89"/>
      <point x="254" y="-89" type="curve"/>
      <point x="207" y="-89"/>
      <point x="182" y="-62"/>
      <point x="182" y="-29" type="curve"/>
      <point x="182" y="2"/>
      <point x="205" y="28"/>
      <point x="249" y="28" type="curve"/>
      <point x="350" y="28"/>
      <point x="400" y="-113"/>
      <point x="511" y="-113" type="curve"/>
      <point x="533" y="-113"/>
      <point x="554" y="-108"/>
      <point x="572" y="-97" type="curve"/>
      <point x="559" y="-76" type="line"/>
      <point x="544" y="-84"/>
      <point x="528" y="-89"/>
      <point x="511" y="-89" type="curve"/>
      <point x="414" y="-89"/>
      <point x="362" y="52"/>
      <point x="247" y="52" type="curve"/>
      <point x="188" y="52"/>
      <point x="156" y="14"/>
      <point x="156" y="-30" type="curve"/>
      <point x="156" y="-78"/>
      <point x="194" y="-113"/>
    </contour>
    <contour>
      <point x="121" y="182" type="line"/>
      <point x="490" y="85" type="line"/>
      <point x="497" y="109" type="line"/>
      <point x="138" y="203" type="line"/>
      <point x="138" y="188" type="line"/>
      <point x="244" y="264" type="line"/>
      <point x="222" y="273" type="line"/>
      <point x="119" y="200" type="line"/>
    </contour>
    <contour>
      <point x="279" y="245" type="curve"/>
      <point x="279" y="245" type="line"/>
      <point x="323" y="245"/>
      <point x="374" y="263"/>
      <point x="399" y="293" type="curve"/>
      <point x="397" y="332" type="line"/>
      <point x="381" y="294"/>
      <point x="327" y="269"/>
      <point x="279" y="269" type="curve"/>
      <point x="214" y="269"/>
      <point x="180" y="308"/>
      <point x="180" y="354" type="curve"/>
      <point x="180" y="395"/>
      <point x="207" y="442"/>
      <point x="262" y="472" type="curve"/>
      <point x="249" y="491" type="line"/>
      <point x="185" y="458"/>
      <point x="154" y="403"/>
      <point x="154" y="354" type="curve"/>
      <point x="154" y="296"/>
      <point x="197" y="245"/>
    </contour>
    <contour>
      <point x="386" y="294" type="line"/>
      <point x="386" y="195" type="line"/>
      <point x="412" y="195" type="line"/>
      <point x="412" y="443" type="line"/>
      <point x="386" y="443" type="line"/>
      <point x="386" y="305" type="line"/>
    </contour>
    <contour>
      <point x="503" y="322" type="curve"/>
      <point x="524" y="306" type="line"/>
      <point x="562" y="346"/>
      <point x="583" y="399"/>
      <point x="583" y="454" type="curve"/>
      <point x="583" y="597"/>
      <point x="439" y="666"/>
      <point x="299" y="666" type="curve"/>
      <point x="163" y="666"/>
      <point x="38" y="600"/>
      <point x="38" y="480" type="curve"/>
      <point x="38" y="405"/>
      <point x="87" y="351"/>
      <point x="171" y="327" type="curve"/>
      <point x="178" y="349" type="line"/>
      <point x="99" y="372"/>
      <point x="64" y="424"/>
      <point x="64" y="481" type="curve"/>
      <point x="64" y="586"/>
      <point x="182" y="642"/>
      <point x="297" y="642" type="curve"/>
      <point x="417" y="642"/>
      <point x="557" y="582"/>
      <point x="557" y="451" type="curve"/>
      <point x="557" y="401"/>
      <point x="537" y="357"/>
    </contour>
  </outline>
</glyph>
<glyph name="ja-oriya.base" format="2">
  <advance width="667"/>
  <anchor x="489" y="110" name="bottom"/>
  <anchor x="333" y="-60" name="nukta"/>
  <anchor x="334" y="658" name="top"/>
  <anchor x="564" y="658" name="topright"/>
  <outline>
    <contour>
      <point x="265" y="90" type="curve"/>
      <point x="265" y="90" type="line"/>
      <point x="298" y="90"/>
      <point x="329" y="96"/>
      <point x="358" y="110" type="curve"/>
      <point x="337" y="161"/>
      <point x="324" y="206"/>
      <point x="324" y="256" type="curve"/>
      <point x="324" y="312"/>
      <point x="342" y="370"/>
      <point x="404" y="370" type="curve"/>
      <point x="452" y="370"/>
      <point x="476" y="335"/>
      <point x="476" y="279" type="curve"/>
      <point x="476" y="96" type="line"/>
      <point x="502" y="96" type="line"/>
      <point x="502" y="289" type="line" smooth="yes"/>
      <point x="502" y="347"/>
      <point x="468" y="394"/>
      <point x="403" y="394" type="curve"/>
      <point x="328" y="394"/>
      <point x="298" y="331"/>
      <point x="298" y="256" type="curve"/>
      <point x="298" y="212"/>
      <point x="308" y="165"/>
      <point x="332" y="104" type="curve"/>
      <point x="345" y="132" type="line"/>
      <point x="320" y="120"/>
      <point x="291" y="114"/>
      <point x="262" y="114" type="curve"/>
      <point x="191" y="114"/>
      <point x="144" y="150"/>
      <point x="144" y="223" type="curve"/>
      <point x="144" y="287"/>
      <point x="177" y="345"/>
      <point x="241" y="397" type="curve"/>
      <point x="226" y="415" type="line"/>
      <point x="158" y="362"/>
      <point x="118" y="300"/>
      <point x="118" y="224" type="curve"/>
      <point x="118" y="139"/>
      <point x="171" y="90"/>
    </contour>
    <contour>
      <point x="136" y="279" type="curve"/>
      <point x="136" y="279" type="line"/>
      <point x="143" y="303" type="line"/>
      <point x="94" y="346"/>
      <point x="64" y="394"/>
      <point x="64" y="453" type="curve"/>
      <point x="64" y="579"/>
      <point x="199" y="642"/>
      <point x="334" y="642" type="curve"/>
      <point x="469" y="642"/>
      <point x="603" y="580"/>
      <point x="603" y="452" type="curve"/>
      <point x="603" y="402"/>
      <point x="583" y="359"/>
      <point x="550" y="325" type="curve"/>
      <point x="567" y="309" type="line"/>
      <point x="605" y="347"/>
      <point x="629" y="395"/>
      <point x="629" y="453" type="curve"/>
      <point x="629" y="597"/>
      <point x="481" y="666"/>
      <point x="334" y="666" type="curve"/>
      <point x="186" y="666"/>
      <point x="38" y="596"/>
      <point x="38" y="455" type="curve"/>
      <point x="38" y="387"/>
      <point x="72" y="328"/>
    </contour>
  </outline>
</glyph>
<glyph name="ja-oriya.below" format="2">
  <note>
jasubscriptorya
</note>
  <guideline x="210" y="124" angle="0"/>
  <guideline x="209" y="199" angle="90"/>
  <guideline x="89" y="113" angle="0"/>
  <anchor x="269" y="110" name="_bottom"/>
  <outline>
    <contour>
      <point x="158" y="-168" type="curve"/>
      <point x="158" y="-168" type="line"/>
      <point x="192" y="-168"/>
      <point x="228" y="-160"/>
      <point x="256" y="-149" type="curve"/>
      <point x="238" y="-107"/>
      <point x="225" y="-57"/>
      <point x="225" y="-12" type="curve"/>
      <point x="225" y="55"/>
      <point x="254" y="93"/>
      <point x="303" y="93" type="curve"/>
      <point x="345" y="93"/>
      <point x="366" y="64"/>
      <point x="366" y="17" type="curve"/>
      <point x="366" y="-164" type="line"/>
      <point x="392" y="-164" type="line"/>
      <point x="392" y="20" type="line" smooth="yes"/>
      <point x="392" y="78"/>
      <point x="361" y="116"/>
      <point x="302" y="116" type="curve"/>
      <point x="236" y="116"/>
      <point x="200" y="69"/>
      <point x="200" y="-13" type="curve"/>
      <point x="200" y="-56"/>
      <point x="210" y="-99"/>
      <point x="230" y="-151" type="curve"/>
      <point x="241" y="-128" type="line"/>
      <point x="221" y="-138"/>
      <point x="186" y="-145"/>
      <point x="161" y="-145" type="curve"/>
      <point x="95" y="-145"/>
      <point x="53" y="-108"/>
      <point x="53" y="-46" type="curve"/>
      <point x="53" y="7"/>
      <point x="83" y="58"/>
      <point x="122" y="97" type="curve"/>
      <point x="105" y="113" type="line"/>
      <point x="60" y="70"/>
      <point x="28" y="17"/>
      <point x="28" y="-45" type="curve"/>
      <point x="28" y="-126"/>
      <point x="82" y="-168"/>
    </contour>
  </outline>
</glyph>
<glyph name="jara-oriya" format="2">
  <advance width="717"/>
  <guideline x="121" y="128" angle="90"/>
  <anchor x="350" y="658" name="top"/>
  <anchor x="614" y="658" name="topright"/>
  <outline>
    <contour>
      <point x="147" y="212" type="curve"/>
      <point x="147" y="212" type="line"/>
      <point x="154" y="238" type="line"/>
      <point x="93" y="295"/>
      <point x="64" y="351"/>
      <point x="64" y="417" type="curve"/>
      <point x="64" y="551"/>
      <point x="184" y="642"/>
      <point x="349" y="642" type="curve"/>
      <point x="503" y="642"/>
      <point x="653" y="562"/>
      <point x="653" y="403" type="curve"/>
      <point x="653" y="342"/>
      <point x="631" y="291"/>
      <point x="595" y="250" type="curve"/>
      <point x="615" y="234" type="line"/>
      <point x="655" y="279"/>
      <point x="679" y="336"/>
      <point x="679" y="403" type="curve"/>
      <point x="679" y="578"/>
      <point x="517" y="666"/>
      <point x="350" y="666" type="curve"/>
      <point x="168" y="666"/>
      <point x="38" y="562"/>
      <point x="38" y="417" type="curve"/>
      <point x="38" y="341"/>
      <point x="73" y="275"/>
    </contour>
    <contour>
      <point x="123" y="-116" type="line"/>
      <point x="123" y="-140" type="line"/>
      <point x="543" y="-140" type="line"/>
      <point x="543" y="228" type="line" smooth="yes"/>
      <point x="543" y="305"/>
      <point x="503" y="347"/>
      <point x="438" y="347" type="curve"/>
      <point x="355" y="347"/>
      <point x="321" y="279"/>
      <point x="321" y="181" type="curve"/>
      <point x="321" y="115"/>
      <point x="338" y="69"/>
      <point x="360" y="8" type="curve"/>
      <point x="373" y="37" type="line"/>
      <point x="347" y="22"/>
      <point x="318" y="16"/>
      <point x="289" y="16" type="curve"/>
      <point x="203" y="16"/>
      <point x="148" y="61"/>
      <point x="148" y="146" type="curve"/>
      <point x="148" y="225"/>
      <point x="191" y="297"/>
      <point x="258" y="357" type="curve"/>
      <point x="242" y="373" type="line"/>
      <point x="172" y="311"/>
      <point x="122" y="239"/>
      <point x="122" y="147" type="curve"/>
      <point x="122" y="41"/>
      <point x="185" y="-8"/>
      <point x="282" y="-8" type="curve"/>
      <point x="319" y="-8"/>
      <point x="354" y="-2"/>
      <point x="385" y="12" type="curve"/>
      <point x="364" y="61"/>
      <point x="347" y="119"/>
      <point x="347" y="183" type="curve"/>
      <point x="347" y="271"/>
      <point x="377" y="323"/>
      <point x="438" y="323" type="curve"/>
      <point x="484" y="323"/>
      <point x="517" y="293"/>
      <point x="517" y="224" type="curve"/>
      <point x="517" y="-116" type="line"/>
    </contour>
  </outline>
</glyph>
<glyph name="java-oriya" format="2">
  <advance width="667"/>
  <anchor x="476" y="-244" name="bottom"/>
  <anchor x="502" y="-244" name="bottom_ra"/>
  <anchor x="393" y="-304" name="nukta"/>
  <anchor x="334" y="658" name="top"/>
  <anchor x="564" y="658" name="topright"/>
  <outline>
    <contour>
      <point x="136" y="279" type="curve"/>
      <point x="136" y="279" type="line"/>
      <point x="143" y="303" type="line"/>
      <point x="94" y="346"/>
      <point x="64" y="394"/>
      <point x="64" y="453" type="curve"/>
      <point x="64" y="579"/>
      <point x="199" y="642"/>
      <point x="334" y="642" type="curve"/>
      <point x="469" y="642"/>
      <point x="603" y="580"/>
      <point x="603" y="452" type="curve"/>
      <point x="603" y="402"/>
      <point x="583" y="359"/>
      <point x="550" y="325" type="curve"/>
      <point x="567" y="309" type="line"/>
      <point x="605" y="347"/>
      <point x="629" y="395"/>
      <point x="629" y="453" type="curve"/>
      <point x="629" y="597"/>
      <point x="481" y="666"/>
      <point x="334" y="666" type="curve"/>
      <point x="186" y="666"/>
      <point x="38" y="596"/>
      <point x="38" y="455" type="curve"/>
      <point x="38" y="387"/>
      <point x="72" y="328"/>
    </contour>
    <contour>
      <point x="383" y="-168" type="curve"/>
      <point x="383" y="-168" type="line"/>
      <point x="422" y="-168"/>
      <point x="463" y="-155"/>
      <point x="493" y="-125" type="curve"/>
      <point x="488" y="-98" type="line"/>
      <point x="462" y="-131"/>
      <point x="419" y="-144"/>
      <point x="384" y="-144" type="curve"/>
      <point x="326" y="-144"/>
      <point x="298" y="-109"/>
      <point x="298" y="-62" type="curve"/>
      <point x="298" y="-40"/>
      <point x="305" y="-14"/>
      <point x="317" y="10" type="curve"/>
      <point x="296" y="21" type="line"/>
      <point x="280" y="-8"/>
      <point x="272" y="-39"/>
      <point x="272" y="-65" type="curve"/>
      <point x="272" y="-121"/>
      <point x="310" y="-168"/>
    </contour>
    <contour>
      <point x="476" y="-244" type="line"/>
      <point x="502" y="-244" type="line"/>
      <point x="502" y="289" type="line" smooth="yes"/>
      <point x="502" y="347"/>
      <point x="468" y="394"/>
      <point x="403" y="394" type="curve"/>
      <point x="328" y="394"/>
      <point x="298" y="331"/>
      <point x="298" y="256" type="curve"/>
      <point x="298" y="212"/>
      <point x="308" y="165"/>
      <point x="332" y="104" type="curve"/>
      <point x="345" y="132" type="line"/>
      <point x="320" y="120"/>
      <point x="291" y="114"/>
      <point x="262" y="114" type="curve"/>
      <point x="191" y="114"/>
      <point x="144" y="150"/>
      <point x="144" y="223" type="curve"/>
      <point x="144" y="287"/>
      <point x="177" y="345"/>
      <point x="241" y="397" type="curve"/>
      <point x="226" y="415" type="line"/>
      <point x="158" y="362"/>
      <point x="118" y="300"/>
      <point x="118" y="224" type="curve"/>
      <point x="118" y="139"/>
      <point x="171" y="90"/>
      <point x="265" y="90" type="curve"/>
      <point x="298" y="90"/>
      <point x="329" y="96"/>
      <point x="358" y="110" type="curve"/>
      <point x="337" y="161"/>
      <point x="324" y="206"/>
      <point x="324" y="256" type="curve"/>
      <point x="324" y="312"/>
      <point x="342" y="370"/>
      <point x="404" y="370" type="curve"/>
      <point x="452" y="370"/>
      <point x="476" y="335"/>
      <point x="476" y="279" type="curve"/>
      <point x="476" y="-118" type="line"/>
      <point x="476" y="-127" type="line"/>
    </contour>
  </outline>
</glyph>
<glyph name="laga-oriya" format="2">
  <advance width="709"/>
  <note>
lagaorya
</note>
  <guideline x="121" y="205" angle="90"/>
  <guideline x="95" y="205" angle="90"/>
  <anchor x="381" y="-328" name="nukta"/>
  <anchor x="333" y="658" name="top"/>
  <anchor x="606" y="658" name="topright"/>
  <outline>
    <contour>
      <point x="38" y="453" type="curve"/>
      <point x="38" y="453" type="line"/>
      <point x="38" y="390"/>
      <point x="69" y="325"/>
      <point x="136" y="279" type="curve"/>
      <point x="143" y="303" type="line"/>
      <point x="88" y="343"/>
      <point x="64" y="398"/>
      <point x="64" y="453" type="curve"/>
      <point x="64" y="566"/>
      <point x="171" y="641"/>
      <point x="331" y="641" type="curve"/>
      <point x="519" y="641"/>
      <point x="645" y="551"/>
      <point x="645" y="401" type="curve"/>
      <point x="645" y="342"/>
      <point x="616" y="287"/>
      <point x="550" y="228" type="curve"/>
      <point x="665" y="90" type="line"/>
      <point x="685" y="105" type="line"/>
      <point x="576" y="234" type="line"/>
      <point x="570" y="214" type="line"/>
      <point x="639" y="278"/>
      <point x="671" y="341"/>
      <point x="671" y="406" type="curve"/>
      <point x="671" y="568"/>
      <point x="536" y="666"/>
      <point x="333" y="666" type="curve"/>
      <point x="156" y="666"/>
      <point x="38" y="581"/>
    </contour>
    <contour>
      <point x="214" y="-135" type="curve"/>
      <point x="214" y="-135" type="line"/>
      <point x="227" y="-111" type="line"/>
      <point x="197" y="-94"/>
      <point x="178" y="-63"/>
      <point x="178" y="-24" type="curve"/>
      <point x="178" y="52"/>
      <point x="246" y="93"/>
      <point x="314" y="93" type="curve"/>
      <point x="385" y="93"/>
      <point x="479" y="48"/>
      <point x="479" y="-40" type="curve"/>
      <point x="501" y="-40" type="line"/>
      <point x="501" y="64"/>
      <point x="404" y="116"/>
      <point x="317" y="116" type="curve"/>
      <point x="233" y="116"/>
      <point x="153" y="68"/>
      <point x="153" y="-25" type="curve"/>
      <point x="153" y="-75"/>
      <point x="178" y="-108"/>
    </contour>
    <contour>
      <point x="307" y="-248" type="curve"/>
      <point x="307" y="-248" type="line"/>
      <point x="369" y="-248"/>
      <point x="408" y="-207"/>
      <point x="408" y="-152" type="curve"/>
      <point x="408" y="-98"/>
      <point x="369" y="-57"/>
      <point x="307" y="-57" type="curve"/>
      <point x="246" y="-57"/>
      <point x="207" y="-98"/>
      <point x="207" y="-152" type="curve"/>
      <point x="207" y="-207"/>
      <point x="246" y="-248"/>
    </contour>
    <contour>
      <point x="307" y="-225" type="curve"/>
      <point x="307" y="-225" type="line"/>
      <point x="262" y="-225"/>
      <point x="232" y="-195"/>
      <point x="232" y="-152" type="curve"/>
      <point x="232" y="-109"/>
      <point x="262" y="-80"/>
      <point x="307" y="-80" type="curve"/>
      <point x="352" y="-80"/>
      <point x="383" y="-109"/>
      <point x="383" y="-152" type="curve"/>
      <point x="383" y="-195"/>
      <point x="352" y="-225"/>
    </contour>
    <contour>
      <point x="476" y="0" type="line"/>
      <point x="476" y="-244" type="line"/>
      <point x="502" y="-244" type="line"/>
      <point x="502" y="323" type="line" smooth="yes"/>
      <point x="502" y="411"/>
      <point x="450" y="434"/>
      <point x="406" y="434" type="curve"/>
      <point x="363" y="434"/>
      <point x="308" y="412"/>
      <point x="308" y="313" type="curve"/>
      <point x="328" y="313" type="line"/>
      <point x="328" y="383"/>
      <point x="296" y="434"/>
      <point x="230" y="434" type="curve"/>
      <point x="155" y="434"/>
      <point x="122" y="374"/>
      <point x="122" y="293" type="curve"/>
      <point x="122" y="250"/>
      <point x="133" y="194"/>
      <point x="150" y="141" type="curve"/>
      <point x="175" y="149" type="line"/>
      <point x="159" y="196"/>
      <point x="148" y="252"/>
      <point x="148" y="291" type="curve"/>
      <point x="148" y="377"/>
      <point x="188" y="410"/>
      <point x="233" y="410" type="curve"/>
      <point x="276" y="410"/>
      <point x="304" y="378"/>
      <point x="304" y="315" type="curve"/>
      <point x="304" y="156" type="line"/>
      <point x="330" y="156" type="line"/>
      <point x="330" y="315" type="line" smooth="yes"/>
      <point x="330" y="385"/>
      <point x="367" y="410"/>
      <point x="405" y="410" type="curve"/>
      <point x="440" y="410"/>
      <point x="476" y="388"/>
      <point x="476" y="324" type="curve"/>
      <point x="476" y="16" type="line"/>
    </contour>
  </outline>
</glyph>
<glyph name="lla-oriya.below" format="2">
  <note>
llasubscriptorya
</note>
  <guideline x="212" y="202" angle="90"/>
  <anchor x="272" y="110" name="_bottom"/>
  <anchor x="212" y="-242" name="nukta"/>
  <outline>
    <contour>
      <point x="364" y="10" type="curve"/>
      <point x="364" y="-164" type="line"/>
      <point x="390" y="-164" type="line"/>
      <point x="390" y="10" type="line" smooth="yes"/>
      <point x="390" y="73"/>
      <point x="357" y="116"/>
      <point x="295" y="116" type="curve"/>
      <point x="246" y="116"/>
      <point x="203" y="84"/>
      <point x="203" y="13" type="curve"/>
      <point x="221" y="13" type="line"/>
      <point x="221" y="73"/>
      <point x="188" y="116"/>
      <point x="129" y="116" type="curve"/>
      <point x="60" y="116"/>
      <point x="28" y="60"/>
      <point x="28" y="-17" type="curve"/>
      <point x="28" y="-61"/>
      <point x="39" y="-116"/>
      <point x="57" y="-169" type="curve"/>
      <point x="81" y="-160" type="line"/>
      <point x="65" y="-115"/>
      <point x="53" y="-60"/>
      <point x="53" y="-16" type="curve"/>
      <point x="53" y="50"/>
      <point x="80" y="93"/>
      <point x="130" y="93" type="curve"/>
      <point x="177" y="93"/>
      <point x="198" y="54"/>
      <point x="198" y="6" type="curve"/>
      <point x="198" y="-164" type="line"/>
      <point x="224" y="-164" type="line"/>
      <point x="224" y="6" type="line" smooth="yes"/>
      <point x="224" y="21"/>
      <point x="224" y="93"/>
      <point x="295" y="93" type="curve"/>
      <point x="365" y="93"/>
      <point x="364" y="23"/>
    </contour>
  </outline>
</glyph>
<glyph name="ma-oriya.below" format="2">
  <note>
masubscriptorya
</note>
  <guideline x="147" y="-80" angle="90"/>
  <guideline x="397" y="92" angle="0"/>
  <guideline x="185" y="206" angle="90"/>
  <anchor x="245" y="110" name="_bottom"/>
  <anchor x="315" y="-164" name="bottom"/>
  <anchor x="341" y="-164" name="bottom_ra"/>
  <anchor x="184" y="-258" name="nukta"/>
  <outline>
    <contour>
      <point x="47" y="-70" type="curve"/>
      <point x="47" y="-70" type="line"/>
      <point x="47" y="-135"/>
      <point x="97" y="-168"/>
      <point x="147" y="-168" type="curve"/>
      <point x="197" y="-168"/>
      <point x="248" y="-136"/>
      <point x="248" y="-65" type="curve"/>
      <point x="248" y="0"/>
      <point x="206" y="85"/>
      <point x="33" y="116" type="curve"/>
      <point x="28" y="93" type="line"/>
      <point x="189" y="65"/>
      <point x="223" y="-5"/>
      <point x="223" y="-61" type="curve"/>
      <point x="223" y="-120"/>
      <point x="184" y="-145"/>
      <point x="148" y="-145" type="curve"/>
      <point x="110" y="-145"/>
      <point x="72" y="-118"/>
      <point x="72" y="-66" type="curve"/>
      <point x="72" y="21"/>
      <point x="178" y="93"/>
      <point x="291" y="93" type="curve"/>
      <point x="301" y="93"/>
      <point x="321" y="92"/>
      <point x="334" y="90" type="curve"/>
      <point x="341" y="114" type="line"/>
      <point x="327" y="115"/>
      <point x="315" y="116"/>
      <point x="306" y="116" type="curve"/>
      <point x="135" y="116"/>
      <point x="47" y="18"/>
    </contour>
    <contour>
      <point x="315" y="103" type="line"/>
      <point x="315" y="-164" type="line"/>
      <point x="341" y="-164" type="line"/>
      <point x="341" y="114" type="line"/>
    </contour>
  </outline>
</glyph>
<glyph name="maba-oriya" format="2">
  <advance width="657"/>
  <guideline x="453" y="49" angle="0"/>
  <anchor x="313" y="658" name="top"/>
  <anchor x="574" y="658" name="topright"/>
  <outline>
    <contour>
      <point x="163" y="262" type="curve"/>
      <point x="163" y="262" type="line"/>
      <point x="175" y="286" type="line"/>
      <point x="104" y="318"/>
      <point x="64" y="389"/>
      <point x="64" y="459" type="curve"/>
      <point x="64" y="551"/>
      <point x="135" y="643"/>
      <point x="299" y="643" type="curve"/>
      <point x="429" y="643"/>
      <point x="563" y="569"/>
      <point x="563" y="418" type="curve"/>
      <point x="587" y="419" type="line"/>
      <point x="587" y="582"/>
      <point x="441" y="667"/>
      <point x="299" y="667" type="curve"/>
      <point x="117" y="667"/>
      <point x="38" y="564"/>
      <point x="38" y="460" type="curve"/>
      <point x="38" y="380"/>
      <point x="84" y="300"/>
    </contour>
    <contour>
      <point x="175" y="91" type="curve"/>
      <point x="175" y="91" type="line"/>
      <point x="202" y="91"/>
      <point x="216" y="110"/>
      <point x="216" y="130" type="curve"/>
      <point x="216" y="149"/>
      <point x="202" y="168"/>
      <point x="176" y="168" type="curve"/>
      <point x="153" y="168"/>
      <point x="130" y="156"/>
      <point x="130" y="133" type="curve"/>
      <point x="146" y="135" type="line"/>
      <point x="144" y="143"/>
      <point x="143" y="151"/>
      <point x="143" y="160" type="curve"/>
      <point x="143" y="263"/>
      <point x="253" y="356"/>
      <point x="407" y="383" type="curve"/>
      <point x="401" y="408" type="line"/>
      <point x="243" y="382"/>
      <point x="118" y="277"/>
      <point x="118" y="164" type="curve"/>
      <point x="118" y="128"/>
      <point x="131" y="91"/>
    </contour>
    <contour>
      <point x="468" y="-92" type="curve"/>
      <point x="468" y="-92" type="line"/>
      <point x="507" y="-92"/>
      <point x="548" y="-79"/>
      <point x="578" y="-49" type="curve"/>
      <point x="573" y="-22" type="line"/>
      <point x="547" y="-55"/>
      <point x="504" y="-68"/>
      <point x="469" y="-68" type="curve"/>
      <point x="411" y="-68"/>
      <point x="383" y="-33"/>
      <point x="383" y="14" type="curve"/>
      <point x="383" y="44"/>
      <point x="394" y="81"/>
      <point x="417" y="111" type="curve"/>
      <point x="399" y="124" type="line"/>
      <point x="371" y="90"/>
      <point x="357" y="46"/>
      <point x="357" y="11" type="curve"/>
      <point x="357" y="-45"/>
      <point x="395" y="-92"/>
    </contour>
    <contour>
      <point x="561" y="-168" type="line"/>
      <point x="587" y="-168" type="line"/>
      <point x="587" y="658" type="line"/>
      <point x="561" y="658" type="line"/>
      <point x="561" y="515" type="line"/>
      <point x="561" y="502" type="line"/>
      <point x="561" y="-42" type="line"/>
      <point x="561" y="-51" type="line"/>
    </contour>
  </outline>
</glyph>
<glyph name="mama-oriya" format="2">
  <advance width="667"/>
  <note>
mamaorya
</note>
  <guideline x="597" y="278" angle="90"/>
  <guideline x="673" y="282" angle="90"/>
  <guideline x="553" y="196" angle="0"/>
  <anchor x="457" y="-268" name="nukta"/>
  <anchor x="297" y="658" name="top"/>
  <anchor x="584" y="658" name="topright"/>
  <outline>
    <contour>
      <point x="313" y="-54" type="curve"/>
      <point x="313" y="-54" type="line"/>
      <point x="327" y="-34" type="line"/>
      <point x="285" y="-16"/>
      <point x="263" y="21"/>
      <point x="263" y="62" type="curve"/>
      <point x="263" y="136"/>
      <point x="335" y="174"/>
      <point x="409" y="174" type="curve"/>
      <point x="489" y="174"/>
      <point x="572" y="130"/>
      <point x="572" y="40" type="curve"/>
      <point x="594" y="44" type="line"/>
      <point x="594" y="146"/>
      <point x="500" y="196"/>
      <point x="409" y="196" type="curve"/>
      <point x="323" y="196"/>
      <point x="239" y="151"/>
      <point x="239" y="64" type="curve"/>
      <point x="239" y="15"/>
      <point x="266" y="-31"/>
    </contour>
    <contour>
      <point x="328" y="-168" type="curve"/>
      <point x="328" y="-168" type="line"/>
      <point x="347" y="-168"/>
      <point x="361" y="-156"/>
      <point x="361" y="-138" type="curve"/>
      <point x="361" y="-121"/>
      <point x="348" y="-108"/>
      <point x="329" y="-108" type="curve"/>
      <point x="315" y="-108"/>
      <point x="306" y="-115"/>
      <point x="297" y="-124" type="curve"/>
      <point x="315" y="-138" type="line"/>
      <point x="313" y="-131"/>
      <point x="313" y="-126"/>
      <point x="313" y="-121" type="curve"/>
      <point x="313" y="-61"/>
      <point x="367" y="-8"/>
      <point x="464" y="10" type="curve"/>
      <point x="459" y="31" type="line"/>
      <point x="343" y="15"/>
      <point x="289" y="-62"/>
      <point x="289" y="-118" type="curve"/>
      <point x="289" y="-147"/>
      <point x="303" y="-168"/>
    </contour>
    <contour>
      <point x="163" y="262" type="curve"/>
      <point x="163" y="262" type="line"/>
      <point x="175" y="286" type="line"/>
      <point x="104" y="318"/>
      <point x="64" y="389"/>
      <point x="64" y="458" type="curve"/>
      <point x="64" y="551"/>
      <point x="137" y="642"/>
      <point x="299" y="642" type="curve"/>
      <point x="441" y="642"/>
      <point x="573" y="569"/>
      <point x="573" y="418" type="curve"/>
      <point x="597" y="419" type="line"/>
      <point x="597" y="568"/>
      <point x="471" y="666"/>
      <point x="297" y="666" type="curve"/>
      <point x="121" y="666"/>
      <point x="38" y="565"/>
      <point x="38" y="459" type="curve"/>
      <point x="38" y="380"/>
      <point x="84" y="300"/>
    </contour>
    <contour>
      <point x="172" y="111" type="curve"/>
      <point x="172" y="111" type="line"/>
      <point x="203" y="111"/>
      <point x="216" y="131"/>
      <point x="216" y="150" type="curve"/>
      <point x="216" y="169"/>
      <point x="202" y="188"/>
      <point x="176" y="188" type="curve"/>
      <point x="153" y="188"/>
      <point x="130" y="176"/>
      <point x="130" y="153" type="curve"/>
      <point x="146" y="155" type="line"/>
      <point x="144" y="163"/>
      <point x="143" y="171"/>
      <point x="143" y="180" type="curve"/>
      <point x="143" y="281"/>
      <point x="248" y="372"/>
      <point x="397" y="401" type="curve"/>
      <point x="392" y="426" type="line"/>
      <point x="238" y="398"/>
      <point x="118" y="295"/>
      <point x="118" y="184" type="curve"/>
      <point x="118" y="148"/>
      <point x="131" y="111"/>
    </contour>
    <contour>
      <point x="597" y="658" type="line"/>
      <point x="571" y="658" type="line"/>
      <point x="571" y="503" type="line"/>
      <point x="571" y="484" type="line"/>
      <point x="571" y="-164" type="line"/>
      <point x="597" y="-164" type="line"/>
    </contour>
  </outline>
</glyph>
<glyph name="na-oriya.base" format="2">
  <advance width="620"/>
  <anchor x="417" y="110" name="bottom"/>
  <anchor x="430" y="106" name="bottom_ta"/>
  <anchor x="305" y="658" name="top"/>
  <anchor x="522" y="658" name="topright"/>
  <outline>
    <contour>
      <point x="114" y="165" type="curve"/>
      <point x="114" y="165" type="line"/>
      <point x="114" y="127"/>
      <point x="129" y="90"/>
      <point x="170" y="90" type="curve"/>
      <point x="198" y="90"/>
      <point x="213" y="109"/>
      <point x="213" y="129" type="curve"/>
      <point x="213" y="148"/>
      <point x="198" y="168"/>
      <point x="169" y="168" type="curve"/>
      <point x="153" y="168"/>
      <point x="130" y="162"/>
      <point x="125" y="132" type="curve"/>
      <point x="152" y="126" type="line"/>
      <point x="141" y="141"/>
      <point x="140" y="154"/>
      <point x="140" y="163" type="curve"/>
      <point x="140" y="252"/>
      <point x="225" y="368"/>
      <point x="364" y="368" type="curve"/>
      <point x="385" y="368"/>
      <point x="415" y="365"/>
      <point x="426" y="364" type="curve"/>
      <point x="404" y="375" type="line"/>
      <point x="404" y="96" type="line"/>
      <point x="430" y="96" type="line"/>
      <point x="430" y="388" type="line"/>
      <point x="416" y="390"/>
      <point x="393" y="392"/>
      <point x="370" y="392" type="curve"/>
      <point x="195" y="392"/>
      <point x="114" y="255"/>
    </contour>
    <contour>
      <point x="166" y="262" type="curve"/>
      <point x="166" y="262" type="line"/>
      <point x="175" y="286" type="line"/>
      <point x="105" y="314"/>
      <point x="64" y="380"/>
      <point x="64" y="451" type="curve"/>
      <point x="64" y="545"/>
      <point x="137" y="642"/>
      <point x="307" y="642" type="curve"/>
      <point x="483" y="642"/>
      <point x="556" y="537"/>
      <point x="556" y="443" type="curve"/>
      <point x="556" y="397"/>
      <point x="539" y="346"/>
      <point x="513" y="316" type="curve"/>
      <point x="535" y="301" type="line"/>
      <point x="565" y="339"/>
      <point x="582" y="395"/>
      <point x="582" y="447" type="curve"/>
      <point x="582" y="594"/>
      <point x="443" y="667"/>
      <point x="305" y="667" type="curve"/>
      <point x="119" y="667"/>
      <point x="38" y="561"/>
      <point x="38" y="455" type="curve"/>
      <point x="38" y="375"/>
      <point x="84" y="295"/>
    </contour>
  </outline>
</glyph>
<glyph name="na-oriya.below" format="2">
  <note>
nasubscriptorya
</note>
  <guideline x="185" y="206" angle="90"/>
  <anchor x="245" y="110" name="_bottom"/>
  <anchor x="308" y="-164" name="bottom"/>
  <anchor x="334" y="-164" name="bottom_ra"/>
  <anchor x="215" y="-248" name="nukta"/>
  <outline>
    <contour>
      <point x="85" y="-168" type="curve"/>
      <point x="85" y="-168" type="line"/>
      <point x="106" y="-168"/>
      <point x="124" y="-155"/>
      <point x="124" y="-132" type="curve"/>
      <point x="124" y="-113"/>
      <point x="111" y="-97"/>
      <point x="86" y="-97" type="curve"/>
      <point x="68" y="-97"/>
      <point x="57" y="-106"/>
      <point x="45" y="-118" type="curve"/>
      <point x="81" y="-150" type="line"/>
      <point x="67" y="-129"/>
      <point x="61" y="-117"/>
      <point x="61" y="-105" type="curve"/>
      <point x="61" y="-3"/>
      <point x="160" y="93"/>
      <point x="272" y="93" type="curve"/>
      <point x="302" y="93"/>
      <point x="317" y="90"/>
      <point x="331" y="87" type="curve"/>
      <point x="308" y="104" type="line"/>
      <point x="308" y="-164" type="line"/>
      <point x="334" y="-164" type="line"/>
      <point x="334" y="112" type="line"/>
      <point x="320" y="114"/>
      <point x="298" y="116"/>
      <point x="272" y="116" type="curve"/>
      <point x="137" y="116"/>
      <point x="36" y="10"/>
      <point x="36" y="-104" type="curve"/>
      <point x="36" y="-135"/>
      <point x="48" y="-168"/>
    </contour>
  </outline>
</glyph>
<glyph name="natava-oriya" format="2">
  <advance width="620"/>
  <anchor x="477" y="-292" name="bottom"/>
  <anchor x="503" y="-292" name="bottom_ra"/>
  <anchor x="400" y="-332" name="nukta"/>
  <anchor x="305" y="657" name="top"/>
  <anchor x="522" y="657" name="topright"/>
  <outline>
    <contour>
      <point x="166" y="261" type="curve"/>
      <point x="166" y="261" type="line"/>
      <point x="175" y="285" type="line"/>
      <point x="105" y="313"/>
      <point x="64" y="379"/>
      <point x="64" y="450" type="curve"/>
      <point x="64" y="544"/>
      <point x="137" y="641"/>
      <point x="307" y="641" type="curve"/>
      <point x="483" y="641"/>
      <point x="556" y="536"/>
      <point x="556" y="442" type="curve"/>
      <point x="556" y="396"/>
      <point x="539" y="345"/>
      <point x="513" y="315" type="curve"/>
      <point x="535" y="300" type="line"/>
      <point x="565" y="338"/>
      <point x="582" y="394"/>
      <point x="582" y="446" type="curve"/>
      <point x="582" y="593"/>
      <point x="443" y="666"/>
      <point x="305" y="666" type="curve"/>
      <point x="119" y="666"/>
      <point x="38" y="560"/>
      <point x="38" y="454" type="curve"/>
      <point x="38" y="374"/>
      <point x="84" y="294"/>
    </contour>
    <contour>
      <point x="384" y="-216" type="curve"/>
      <point x="384" y="-216" type="line"/>
      <point x="423" y="-216"/>
      <point x="464" y="-203"/>
      <point x="494" y="-173" type="curve"/>
      <point x="489" y="-146" type="line"/>
      <point x="463" y="-179"/>
      <point x="420" y="-192"/>
      <point x="385" y="-192" type="curve"/>
      <point x="327" y="-192"/>
      <point x="299" y="-157"/>
      <point x="299" y="-110" type="curve"/>
      <point x="299" y="-94"/>
      <point x="303" y="-75"/>
      <point x="309" y="-56" type="curve"/>
      <point x="287" y="-48" type="line"/>
      <point x="277" y="-70"/>
      <point x="273" y="-93"/>
      <point x="273" y="-113" type="curve"/>
      <point x="273" y="-169"/>
      <point x="311" y="-216"/>
    </contour>
    <contour>
      <point x="477" y="-180" type="line"/>
      <point x="477" y="-292" type="line"/>
      <point x="503" y="-292" type="line"/>
      <point x="503" y="-66" type="line"/>
      <point x="477" y="-66" type="line"/>
      <point x="477" y="-171" type="line"/>
    </contour>
    <contour>
      <point x="321" y="-61" type="curve"/>
      <point x="321" y="-61" type="line"/>
      <point x="458" y="-61"/>
      <point x="579" y="5"/>
      <point x="579" y="131" type="curve"/>
      <point x="579" y="207"/>
      <point x="537" y="239"/>
      <point x="493" y="239" type="curve"/>
      <point x="446" y="239"/>
      <point x="404" y="203"/>
      <point x="404" y="144" type="curve"/>
      <point x="404" y="79"/>
      <point x="450" y="48"/>
      <point x="490" y="48" type="curve"/>
      <point x="532" y="48"/>
      <point x="575" y="81"/>
      <point x="575" y="147" type="curve"/>
      <point x="550" y="105" type="line"/>
      <point x="539" y="10"/>
      <point x="438" y="-37"/>
      <point x="325" y="-37" type="curve"/>
      <point x="259" y="-37"/>
      <point x="190" y="-21"/>
      <point x="132" y="11" type="curve"/>
      <point x="119" y="-11" type="line"/>
      <point x="181" y="-44"/>
      <point x="253" y="-61"/>
    </contour>
    <contour>
      <point x="170" y="89" type="curve"/>
      <point x="170" y="89" type="line"/>
      <point x="198" y="89"/>
      <point x="213" y="108"/>
      <point x="213" y="128" type="curve"/>
      <point x="213" y="147"/>
      <point x="198" y="167"/>
      <point x="169" y="167" type="curve"/>
      <point x="153" y="167"/>
      <point x="130" y="161"/>
      <point x="125" y="131" type="curve"/>
      <point x="152" y="125" type="line"/>
      <point x="141" y="140"/>
      <point x="140" y="153"/>
      <point x="140" y="162" type="curve"/>
      <point x="140" y="251"/>
      <point x="225" y="367"/>
      <point x="364" y="367" type="curve"/>
      <point x="385" y="367"/>
      <point x="415" y="364"/>
      <point x="426" y="363" type="curve"/>
      <point x="404" y="374" type="line"/>
      <point x="404" y="144" type="line"/>
      <point x="430" y="175" type="line"/>
      <point x="430" y="387" type="line"/>
      <point x="416" y="389"/>
      <point x="393" y="391"/>
      <point x="370" y="391" type="curve"/>
      <point x="195" y="391"/>
      <point x="114" y="254"/>
      <point x="114" y="164" type="curve"/>
      <point x="114" y="126"/>
      <point x="129" y="89"/>
    </contour>
    <contour>
      <point x="494" y="72" type="curve"/>
      <point x="494" y="72" type="line"/>
      <point x="460" y="72"/>
      <point x="430" y="99"/>
      <point x="430" y="145" type="curve"/>
      <point x="430" y="191"/>
      <point x="461" y="215"/>
      <point x="492" y="215" type="curve"/>
      <point x="523" y="215"/>
      <point x="553" y="191"/>
      <point x="553" y="143" type="curve"/>
      <point x="553" y="98"/>
      <point x="527" y="72"/>
    </contour>
  </outline>
</glyph>
<glyph name="nna-oriya.below" format="2">
  <note>
nnasubscriptorya
</note>
  <guideline x="194" y="144" angle="90"/>
  <anchor x="224" y="112" name="_bottom"/>
  <anchor x="334" y="-244" name="bottom"/>
  <anchor x="360" y="-244" name="bottom_ra"/>
  <anchor x="244" y="-328" name="nukta"/>
  <outline>
    <contour>
      <point x="28" y="-119" type="curve"/>
      <point x="28" y="-119" type="line"/>
      <point x="28" y="-207"/>
      <point x="101" y="-248"/>
      <point x="166" y="-248" type="curve"/>
      <point x="219" y="-248"/>
      <point x="266" y="-221"/>
      <point x="266" y="-173" type="curve"/>
      <point x="266" y="-116"/>
      <point x="214" y="-87"/>
      <point x="132" y="-87" type="curve"/>
      <point x="101" y="-87"/>
      <point x="67" y="-94"/>
      <point x="37" y="-109" type="curve"/>
      <point x="37" y="-134" type="line"/>
      <point x="66" y="-119"/>
      <point x="102" y="-110"/>
      <point x="133" y="-110" type="curve"/>
      <point x="202" y="-110"/>
      <point x="241" y="-130"/>
      <point x="241" y="-169" type="curve"/>
      <point x="241" y="-205"/>
      <point x="209" y="-225"/>
      <point x="166" y="-225" type="curve"/>
      <point x="107" y="-225"/>
      <point x="53" y="-192"/>
      <point x="53" y="-116" type="curve"/>
      <point x="53" y="-39"/>
      <point x="116" y="-14"/>
      <point x="166" y="-14" type="curve"/>
      <point x="186" y="-14"/>
      <point x="212" y="-17"/>
      <point x="233" y="-25" type="curve"/>
      <point x="241" y="-3" type="line"/>
      <point x="217" y="7"/>
      <point x="191" y="10"/>
      <point x="169" y="10" type="curve"/>
      <point x="98" y="10"/>
      <point x="28" y="-31"/>
    </contour>
    <contour>
      <point x="334" y="17" type="line"/>
      <point x="334" y="-244" type="line"/>
      <point x="360" y="-244" type="line"/>
      <point x="360" y="112" type="line"/>
      <point x="334" y="112" type="line"/>
      <point x="334" y="23" type="line"/>
    </contour>
    <contour>
      <point x="118" y="-4" type="curve"/>
      <point x="118" y="-4" type="line"/>
      <point x="141" y="1" type="line"/>
      <point x="133" y="17"/>
      <point x="128" y="30"/>
      <point x="128" y="44" type="curve"/>
      <point x="128" y="71"/>
      <point x="146" y="93"/>
      <point x="192" y="93" type="curve"/>
      <point x="263" y="93"/>
      <point x="337" y="39"/>
      <point x="337" y="-59" type="curve"/>
      <point x="359" y="-59" type="line"/>
      <point x="359" y="63"/>
      <point x="265" y="116"/>
      <point x="192" y="116" type="curve"/>
      <point x="137" y="116"/>
      <point x="103" y="87"/>
      <point x="103" y="44" type="curve"/>
      <point x="103" y="29"/>
      <point x="108" y="13"/>
    </contour>
  </outline>
</glyph>
<glyph name="overline-oriya.narrow" format="2">
  <anchor x="1" y="658" name="_top"/>
  <anchor x="71" y="658" name="_topAA"/>
  <outline>
    <contour>
      <point x="71" y="770" type="line"/>
      <point x="-71" y="770" type="line"/>
      <point x="-71" y="746" type="line"/>
      <point x="71" y="746" type="line"/>
    </contour>
  </outline>
</glyph>
<glyph name="partta-oriya.below" format="2">
  <advance width="544"/>
  <note>
tasubscriptorya
</note>
  <outline>
    <contour>
      <point x="73" y="-112" type="curve"/>
      <point x="60" y="-134" type="line"/>
      <point x="122" y="-167"/>
      <point x="194" y="-184"/>
      <point x="262" y="-184" type="curve"/>
      <point x="399" y="-184"/>
      <point x="520" y="-118"/>
      <point x="520" y="8" type="curve"/>
      <point x="520" y="84"/>
      <point x="478" y="116"/>
      <point x="434" y="116" type="curve"/>
      <point x="387" y="116"/>
      <point x="345" y="80"/>
      <point x="345" y="21" type="curve"/>
      <point x="345" y="-44"/>
      <point x="391" y="-75"/>
      <point x="431" y="-75" type="curve"/>
      <point x="473" y="-75"/>
      <point x="516" y="-42"/>
      <point x="516" y="24" type="curve"/>
      <point x="491" y="-18" type="line"/>
      <point x="480" y="-113"/>
      <point x="379" y="-160"/>
      <point x="266" y="-160" type="curve"/>
      <point x="200" y="-160"/>
      <point x="131" y="-144"/>
    </contour>
    <contour>
      <point x="494" y="20" type="curve"/>
      <point x="494" y="20" type="line"/>
      <point x="494" y="-25"/>
      <point x="468" y="-51"/>
      <point x="435" y="-51" type="curve"/>
      <point x="401" y="-51"/>
      <point x="371" y="-24"/>
      <point x="371" y="22" type="curve"/>
      <point x="371" y="68"/>
      <point x="402" y="92"/>
      <point x="433" y="92" type="curve"/>
      <point x="464" y="92"/>
      <point x="494" y="68"/>
    </contour>
  </outline>
</glyph>
<glyph name="pasa-oriya" format="2">
  <advance width="657"/>
  <note>
pasaorya
</note>
  <anchor x="561" y="-161" name="bottom"/>
  <anchor x="587" y="-164" name="bottom_ra"/>
  <anchor x="412" y="-214" name="nukta"/>
  <anchor x="313" y="658" name="top"/>
  <anchor x="574" y="658" name="topright"/>
  <outline>
    <contour>
      <point x="170" y="262" type="curve"/>
      <point x="170" y="262" type="line"/>
      <point x="177" y="285" type="line"/>
      <point x="102" y="325"/>
      <point x="64" y="385"/>
      <point x="64" y="456" type="curve"/>
      <point x="64" y="583"/>
      <point x="184" y="642"/>
      <point x="302" y="642" type="curve"/>
      <point x="432" y="642"/>
      <point x="563" y="570"/>
      <point x="563" y="418" type="curve"/>
      <point x="587" y="419" type="line"/>
      <point x="587" y="566"/>
      <point x="471" y="666"/>
      <point x="303" y="666" type="curve"/>
      <point x="147" y="666"/>
      <point x="38" y="581"/>
      <point x="38" y="457" type="curve"/>
      <point x="38" y="378"/>
      <point x="80" y="309"/>
    </contour>
    <contour>
      <point x="161" y="250" type="curve"/>
      <point x="161" y="250" type="line"/>
      <point x="161" y="181"/>
      <point x="204" y="128"/>
      <point x="278" y="104" type="curve"/>
      <point x="288" y="127" type="line"/>
      <point x="224" y="149"/>
      <point x="187" y="192"/>
      <point x="187" y="251" type="curve"/>
      <point x="187" y="320"/>
      <point x="240" y="376"/>
      <point x="320" y="400" type="curve"/>
      <point x="312" y="421" type="line"/>
      <point x="217" y="394"/>
      <point x="161" y="330"/>
    </contour>
    <contour>
      <point x="349" y="-46" type="curve"/>
      <point x="349" y="-46" type="line"/>
      <point x="365" y="-30" type="line" smooth="yes"/>
      <point x="314" y="-7"/>
      <point x="282" y="33"/>
      <point x="282" y="80" type="curve"/>
      <point x="282" y="142"/>
      <point x="341" y="176"/>
      <point x="405" y="176" type="curve"/>
      <point x="481" y="176"/>
      <point x="564" y="129"/>
      <point x="564" y="25" type="curve"/>
      <point x="586" y="25" type="line" smooth="yes"/>
      <point x="586" y="144"/>
      <point x="493" y="200"/>
      <point x="405" y="200" type="curve"/>
      <point x="329" y="200"/>
      <point x="257" y="157"/>
      <point x="257" y="77" type="curve"/>
      <point x="257" y="19"/>
      <point x="294" y="-20"/>
    </contour>
    <contour>
      <point x="296" y="-89" type="line"/>
      <point x="573" y="-164" type="line"/>
      <point x="587" y="-164" type="line"/>
      <point x="587" y="658" type="line"/>
      <point x="561" y="658" type="line"/>
      <point x="561" y="513" type="line"/>
      <point x="561" y="487" type="line"/>
      <point x="561" y="105" type="line"/>
      <point x="561" y="83" type="line"/>
      <point x="561" y="-151" type="line"/>
      <point x="576" y="-141" type="line"/>
      <point x="308" y="-69" type="line"/>
      <point x="329" y="-77" type="line"/>
      <point x="454" y="40" type="line"/>
      <point x="436" y="57" type="line"/>
      <point x="292" y="-78" type="line"/>
    </contour>
  </outline>
</glyph>
<glyph name="period.latn" format="2">
  <advance width="220"/>
  <outline>
    <contour>
      <point x="85" y="23" type="curve" smooth="yes"/>
      <point x="85" y="6"/>
      <point x="90" y="-8"/>
      <point x="110" y="-8" type="curve" smooth="yes"/>
      <point x="134" y="-8"/>
      <point x="137" y="6"/>
      <point x="137" y="23" type="curve" smooth="yes"/>
      <point x="137" y="39"/>
      <point x="134" y="54"/>
      <point x="110" y="54" type="curve" smooth="yes"/>
      <point x="90" y="54"/>
      <point x="85" y="39"/>
    </contour>
  </outline>
</glyph>
<glyph name="plus.latn" format="2">
  <advance width="570"/>
  <outline>
    <contour>
      <point x="297" y="365" type="line"/>
      <point x="297" y="583" type="line"/>
      <point x="273" y="583" type="line"/>
      <point x="273" y="365" type="line"/>
      <point x="55" y="365" type="line"/>
      <point x="55" y="341" type="line"/>
      <point x="273" y="341" type="line"/>
      <point x="273" y="123" type="line"/>
      <point x="297" y="123" type="line"/>
      <point x="297" y="341" type="line"/>
      <point x="515" y="341" type="line"/>
      <point x="515" y="365" type="line"/>
    </contour>
  </outline>
</glyph>
<glyph name="rephaiLength-oriya.stem" format="2">
  <note>
ailengthmarkrephorya
</note>
  <anchor x="529" y="658" name="_topright"/>
  <outline>
    <contour>
      <point x="581" y="834" type="line"/>
      <point x="599" y="820" type="line"/>
      <point x="729" y="928" type="line"/>
      <point x="713" y="946" type="line"/>
    </contour>
    <contour>
      <point x="516" y="658" type="curve"/>
      <point x="516" y="658" type="line"/>
      <point x="541" y="646" type="line"/>
      <point x="592" y="680"/>
      <point x="619" y="731"/>
      <point x="619" y="776" type="curve"/>
      <point x="619" y="830"/>
      <point x="582" y="876"/>
      <point x="500" y="876" type="curve"/>
      <point x="408" y="876"/>
      <point x="304" y="816"/>
      <point x="225" y="816" type="curve"/>
      <point x="185" y="816"/>
      <point x="147" y="831"/>
      <point x="123" y="873" type="curve"/>
      <point x="100" y="858" type="line"/>
      <point x="127" y="809"/>
      <point x="177" y="792"/>
      <point x="226" y="792" type="curve"/>
      <point x="319" y="792"/>
      <point x="418" y="852"/>
      <point x="500" y="852" type="curve"/>
      <point x="563" y="852"/>
      <point x="594" y="816"/>
      <point x="594" y="773" type="curve"/>
      <point x="594" y="732"/>
      <point x="566" y="685"/>
    </contour>
  </outline>
</glyph>
<glyph name="rephaiLength-oriya.umbrella" format="2">
  <note>
ailengthmarkrephorya
</note>
  <anchor x="590" y="658" name="_topright"/>
  <outline>
    <contour>
      <point x="582" y="835" type="line"/>
      <point x="600" y="821" type="line"/>
      <point x="729" y="928" type="line"/>
      <point x="713" y="946" type="line"/>
    </contour>
    <contour>
      <point x="581" y="703" type="curve"/>
      <point x="581" y="703" type="line"/>
      <point x="605" y="695" type="line"/>
      <point x="614" y="719"/>
      <point x="619" y="743"/>
      <point x="619" y="765" type="curve"/>
      <point x="619" y="828"/>
      <point x="580" y="876"/>
      <point x="499" y="876" type="curve"/>
      <point x="407" y="876"/>
      <point x="303" y="816"/>
      <point x="224" y="816" type="curve"/>
      <point x="184" y="816"/>
      <point x="146" y="831"/>
      <point x="122" y="873" type="curve"/>
      <point x="99" y="858" type="line"/>
      <point x="126" y="809"/>
      <point x="176" y="792"/>
      <point x="225" y="792" type="curve"/>
      <point x="318" y="792"/>
      <point x="418" y="852"/>
      <point x="499" y="852" type="curve"/>
      <point x="563" y="852"/>
      <point x="594" y="814"/>
      <point x="594" y="764" type="curve"/>
      <point x="594" y="744"/>
      <point x="589" y="724"/>
    </contour>
  </outline>
</glyph>
<glyph name="rephauLength-oriya" format="2">
  <advance width="166"/>
  <note>
aurephorya
</note>
  <outline>
    <contour>
      <point x="130" y="834" type="line"/>
      <point x="148" y="820" type="line"/>
      <point x="278" y="928" type="line"/>
      <point x="262" y="946" type="line"/>
    </contour>
    <contour>
      <point x="96" y="693" type="line"/>
      <point x="70" y="693" type="line"/>
      <point x="70" y="0" type="line"/>
      <point x="96" y="0" type="line"/>
    </contour>
    <contour>
      <point x="70" y="693" type="curve"/>
      <point x="70" y="693" type="line"/>
      <point x="96" y="681" type="line"/>
      <point x="142" y="703"/>
      <point x="167" y="737"/>
      <point x="167" y="781" type="curve"/>
      <point x="167" y="840"/>
      <point x="118" y="876"/>
      <point x="49" y="876" type="curve"/>
      <point x="-42" y="876"/>
      <point x="-149" y="816"/>
      <point x="-224" y="816" type="curve"/>
      <point x="-266" y="816"/>
      <point x="-304" y="831"/>
      <point x="-328" y="873" type="curve"/>
      <point x="-351" y="858" type="line"/>
      <point x="-324" y="809"/>
      <point x="-274" y="792"/>
      <point x="-225" y="792" type="curve"/>
      <point x="-133" y="792"/>
      <point x="-30" y="852"/>
      <point x="46" y="852" type="curve"/>
      <point x="104" y="852"/>
      <point x="141" y="826"/>
      <point x="141" y="778" type="curve"/>
      <point x="141" y="739"/>
      <point x="116" y="710"/>
    </contour>
  </outline>
</glyph>
<glyph name="sha-oriya.below" format="2">
  <note>
shasubscriptorya
</note>
  <guideline x="191" y="150" angle="90"/>
  <anchor x="224" y="110" name="_bottom"/>
  <anchor x="334" y="-244" name="bottom"/>
  <anchor x="360" y="-244" name="bottom_ra"/>
  <anchor x="233" y="-317" name="nukta"/>
  <outline>
    <contour>
      <point x="77" y="-137" type="curve"/>
      <point x="77" y="-137" type="line"/>
      <point x="89" y="-116" type="line"/>
      <point x="65" y="-101"/>
      <point x="53" y="-77"/>
      <point x="53" y="-55" type="curve"/>
      <point x="53" y="-24"/>
      <point x="78" y="4"/>
      <point x="136" y="4" type="curve"/>
      <point x="158" y="4"/>
      <point x="182" y="0"/>
      <point x="204" y="-8" type="curve"/>
      <point x="212" y="13" type="line"/>
      <point x="186" y="23"/>
      <point x="158" y="27"/>
      <point x="135" y="27" type="curve"/>
      <point x="65" y="27"/>
      <point x="28" y="-12"/>
      <point x="28" y="-58" type="curve"/>
      <point x="28" y="-87"/>
      <point x="44" y="-116"/>
    </contour>
    <contour>
      <point x="334" y="17" type="line"/>
      <point x="334" y="-244" type="line"/>
      <point x="360" y="-244" type="line"/>
      <point x="360" y="112" type="line"/>
      <point x="334" y="112" type="line"/>
      <point x="334" y="23" type="line"/>
    </contour>
    <contour>
      <point x="113" y="6" type="curve"/>
      <point x="113" y="6" type="line"/>
      <point x="136" y="11" type="line"/>
      <point x="131" y="23"/>
      <point x="128" y="33"/>
      <point x="128" y="44" type="curve"/>
      <point x="128" y="71"/>
      <point x="146" y="93"/>
      <point x="192" y="93" type="curve"/>
      <point x="263" y="93"/>
      <point x="337" y="39"/>
      <point x="337" y="-59" type="curve"/>
      <point x="359" y="-59" type="line"/>
      <point x="359" y="63"/>
      <point x="265" y="116"/>
      <point x="192" y="116" type="curve"/>
      <point x="137" y="116"/>
      <point x="103" y="87"/>
      <point x="103" y="44" type="curve"/>
      <point x="103" y="32"/>
      <point x="106" y="19"/>
    </contour>
    <contour>
      <point x="165" y="-248" type="curve"/>
      <point x="165" y="-248" type="line"/>
      <point x="227" y="-248"/>
      <point x="266" y="-207"/>
      <point x="266" y="-158" type="curve"/>
      <point x="266" y="-109"/>
      <point x="227" y="-68"/>
      <point x="165" y="-68" type="curve"/>
      <point x="104" y="-68"/>
      <point x="65" y="-109"/>
      <point x="65" y="-158" type="curve"/>
      <point x="65" y="-207"/>
      <point x="104" y="-248"/>
    </contour>
    <contour>
      <point x="165" y="-225" type="curve"/>
      <point x="165" y="-225" type="line"/>
      <point x="120" y="-225"/>
      <point x="90" y="-195"/>
      <point x="90" y="-158" type="curve"/>
      <point x="90" y="-120"/>
      <point x="120" y="-91"/>
      <point x="165" y="-91" type="curve"/>
      <point x="210" y="-91"/>
      <point x="241" y="-120"/>
      <point x="241" y="-158" type="curve"/>
      <point x="241" y="-195"/>
      <point x="210" y="-225"/>
    </contour>
  </outline>
</glyph>
<glyph name="ta-oriya.below" format="2">
  <note>
tasubscriptorya
</note>
  <guideline x="371" y="158" angle="90"/>
  <anchor x="401" y="110" name="_bottom"/>
  <anchor x="265" y="-113" name="bottom"/>
  <anchor x="293" y="-113" name="bottom_ra"/>
  <anchor x="245" y="-213" name="nukta"/>
  <outline>
    <contour>
      <point x="375" y="-86" type="curve"/>
      <point x="375" y="-86" type="line"/>
      <point x="377" y="-74" type="line"/>
      <point x="347" y="-85"/>
      <point x="316" y="-90"/>
      <point x="282" y="-90" type="curve"/>
      <point x="188" y="-90"/>
      <point x="104" y="-48"/>
      <point x="45" y="6" type="curve"/>
      <point x="28" y="-13" type="line"/>
      <point x="96" y="-78"/>
      <point x="187" y="-113"/>
      <point x="285" y="-113" type="curve"/>
      <point x="398" y="-113"/>
      <point x="462" y="-66"/>
      <point x="462" y="15" type="curve"/>
      <point x="462" y="76"/>
      <point x="426" y="116"/>
      <point x="371" y="116" type="curve"/>
      <point x="315" y="116"/>
      <point x="277" y="76"/>
      <point x="277" y="16" type="curve"/>
      <point x="277" y="-43"/>
      <point x="316" y="-86"/>
    </contour>
    <contour>
      <point x="372" y="-63" type="curve"/>
      <point x="372" y="-63" type="line"/>
      <point x="332" y="-63"/>
      <point x="302" y="-32"/>
      <point x="302" y="16" type="curve"/>
      <point x="302" y="62"/>
      <point x="330" y="93"/>
      <point x="370" y="93" type="curve"/>
      <point x="410" y="93"/>
      <point x="437" y="61"/>
      <point x="437" y="14" type="curve"/>
      <point x="437" y="-32"/>
      <point x="411" y="-63"/>
    </contour>
  </outline>
</glyph>
<glyph name="taalt-oriya.below" format="2">
  <guideline x="156" y="-33" angle="90"/>
  <anchor x="124" y="4" name="_bottom"/>
  <anchor x="156" y="10" name="_bottom_ta"/>
  <anchor x="116" y="-145" name="bottom"/>
  <anchor x="156" y="-153" name="bottom_ra"/>
  <anchor x="82" y="-227" name="nukta"/>
  <outline>
    <contour>
      <point x="20" y="-109" type="line"/>
      <point x="244" y="-197" type="line"/>
      <point x="253" y="-177" type="line"/>
      <point x="24" y="-86" type="line"/>
      <point x="32" y="-103" type="line"/>
      <point x="156" y="0" type="line"/>
      <point x="138" y="17" type="line"/>
      <point x="12" y="-89" type="line"/>
    </contour>
  </outline>
</glyph>
<glyph name="tta-oriya.below" format="2">
  <note>
ttasubscriptorya
</note>
  <guideline x="191" y="144" angle="90"/>
  <anchor x="221" y="110" name="_bottom"/>
  <anchor x="170" y="-245" name="bottom"/>
  <anchor x="197" y="-246" name="bottom_ra"/>
  <anchor x="192" y="-318" name="nukta"/>
  <outline>
    <contour>
      <point x="89" y="-135" type="curve"/>
      <point x="89" y="-135" type="line"/>
      <point x="102" y="-111" type="line"/>
      <point x="66" y="-89"/>
      <point x="53" y="-58"/>
      <point x="53" y="-21" type="curve"/>
      <point x="53" y="54"/>
      <point x="117" y="93"/>
      <point x="185" y="93" type="curve"/>
      <point x="259" y="93"/>
      <point x="335" y="48"/>
      <point x="335" y="-43" type="curve"/>
      <point x="356" y="-43" type="line"/>
      <point x="356" y="64"/>
      <point x="269" y="116"/>
      <point x="185" y="116" type="curve"/>
      <point x="106" y="116"/>
      <point x="28" y="71"/>
      <point x="28" y="-21" type="curve"/>
      <point x="28" y="-75"/>
      <point x="51" y="-105"/>
    </contour>
    <contour>
      <point x="331" y="17" type="line"/>
      <point x="331" y="-67" type="line"/>
      <point x="357" y="-67" type="line"/>
      <point x="357" y="112" type="line"/>
      <point x="331" y="112" type="line"/>
      <point x="331" y="23" type="line"/>
    </contour>
    <contour>
      <point x="182" y="-248" type="curve"/>
      <point x="182" y="-248" type="line"/>
      <point x="244" y="-248"/>
      <point x="283" y="-207"/>
      <point x="283" y="-152" type="curve"/>
      <point x="283" y="-98"/>
      <point x="244" y="-57"/>
      <point x="182" y="-57" type="curve"/>
      <point x="121" y="-57"/>
      <point x="82" y="-98"/>
      <point x="82" y="-152" type="curve"/>
      <point x="82" y="-207"/>
      <point x="121" y="-248"/>
    </contour>
    <contour>
      <point x="182" y="-225" type="curve"/>
      <point x="182" y="-225" type="line"/>
      <point x="137" y="-225"/>
      <point x="107" y="-195"/>
      <point x="107" y="-152" type="curve"/>
      <point x="107" y="-109"/>
      <point x="137" y="-80"/>
      <point x="182" y="-80" type="curve"/>
      <point x="227" y="-80"/>
      <point x="258" y="-109"/>
      <point x="258" y="-152" type="curve"/>
      <point x="258" y="-195"/>
      <point x="227" y="-225"/>
    </contour>
  </outline>
</glyph>
<glyph name="ttha-oriya.below" format="2">
  <note>
tthasubscriptorya
</note>
  <guideline x="199" y="155" angle="90"/>
  <anchor x="244" y="110" name="_bottom"/>
  <anchor x="187" y="-208" name="bottom"/>
  <anchor x="214" y="-208" name="bottom_ra"/>
  <anchor x="197" y="-278" name="nukta"/>
  <outline>
    <contour>
      <point x="198" y="-208" type="curve"/>
      <point x="198" y="-208" type="line"/>
      <point x="298" y="-208"/>
      <point x="366" y="-143"/>
      <point x="366" y="-47" type="curve"/>
      <point x="366" y="51"/>
      <point x="299" y="116"/>
      <point x="199" y="116" type="curve"/>
      <point x="97" y="116"/>
      <point x="28" y="51"/>
      <point x="28" y="-47" type="curve"/>
      <point x="28" y="-143"/>
      <point x="96" y="-208"/>
    </contour>
    <contour>
      <point x="198" y="-185" type="curve"/>
      <point x="198" y="-185" type="line"/>
      <point x="111" y="-185"/>
      <point x="53" y="-130"/>
      <point x="53" y="-47" type="curve"/>
      <point x="53" y="38"/>
      <point x="112" y="93"/>
      <point x="200" y="93" type="curve"/>
      <point x="285" y="93"/>
      <point x="341" y="39"/>
      <point x="341" y="-44" type="curve"/>
      <point x="341" y="-129"/>
      <point x="284" y="-185"/>
    </contour>
  </outline>
</glyph>
<glyph name="va-oriya.below" format="2">
  <guideline x="189" y="123" angle="0"/>
  <guideline x="195" y="97" angle="0"/>
  <guideline x="149" y="206" angle="90"/>
  <anchor x="169" y="110" name="_bottom"/>
  <anchor x="232" y="-164" name="bottom"/>
  <anchor x="258" y="-164" name="bottom_ra"/>
  <anchor x="144" y="-233" name="nukta"/>
  <outline>
    <contour>
      <point x="28" y="15" type="curve"/>
      <point x="28" y="15" type="line"/>
      <point x="28" y="-41"/>
      <point x="66" y="-88"/>
      <point x="139" y="-88" type="curve"/>
      <point x="178" y="-88"/>
      <point x="219" y="-75"/>
      <point x="249" y="-45" type="curve"/>
      <point x="244" y="-18" type="line"/>
      <point x="218" y="-51"/>
      <point x="175" y="-64"/>
      <point x="140" y="-64" type="curve"/>
      <point x="82" y="-64"/>
      <point x="54" y="-29"/>
      <point x="54" y="18" type="curve"/>
      <point x="54" y="40"/>
      <point x="65" y="76"/>
      <point x="83" y="104" type="curve"/>
      <point x="61" y="115" type="line"/>
      <point x="39" y="83"/>
      <point x="28" y="46"/>
    </contour>
    <contour>
      <point x="232" y="-51" type="line"/>
      <point x="232" y="-164" type="line"/>
      <point x="258" y="-164" type="line"/>
      <point x="258" y="112" type="line"/>
      <point x="232" y="112" type="line"/>
      <point x="232" y="-42" type="line"/>
    </contour>
  </outline>
</glyph>
<glyph name="yya-oriya.post" format="2">
  <advance width="387"/>
  <note>
yapostorya
</note>
  <outline>
    <contour>
      <point x="291" y="380" type="line"/>
      <point x="291" y="0" type="line"/>
      <point x="317" y="0" type="line"/>
      <point x="317" y="658" type="line"/>
      <point x="291" y="658" type="line"/>
      <point x="291" y="391" type="line"/>
      <point x="304" y="402" type="line"/>
      <point x="269" y="377"/>
      <point x="219" y="363"/>
      <point x="176" y="363" type="curve"/>
      <point x="107" y="363"/>
      <point x="64" y="400"/>
      <point x="64" y="503" type="curve"/>
      <point x="64" y="545"/>
      <point x="71" y="623"/>
      <point x="80" y="656" type="curve"/>
      <point x="55" y="661" type="line"/>
      <point x="45" y="620"/>
      <point x="38" y="547"/>
      <point x="38" y="504" type="curve"/>
      <point x="38" y="380"/>
      <point x="98" y="339"/>
      <point x="178" y="339" type="curve"/>
      <point x="221" y="339"/>
      <point x="271" y="351"/>
      <point x="308" y="380" type="curve"/>
    </contour>
  </outline>
</glyph>
